<svg xmlns="http://www.w3.org/2000/svg" width="1540" height="560" viewBox="0 0 1540 560">
  <rect width="1540" height="560" fill="#1D1D1D"/>
  <g font-family="Arial, Helvetica, sans-serif" font-size="19" font-weight="bold" fill="#EDEDED" text-anchor="middle">
    <!-- Row 1 -->
    <circle cx="77"   cy="90" r="60" fill="#0A0F3D"/><text x="77"   y="178">#0A0F3D</text>
    <circle cx="231"  cy="90" r="60" fill="#1E1B51"/><text x="231"  y="178">#1E1B51</text>
    <circle cx="385"  cy="90" r="60" fill="#3D1278"/><text x="385"  y="178">#3D1278</text>
    <circle cx="539"  cy="90" r="60" fill="#8A2BE2"/><text x="539"  y="178">#8A2BE2</text>
    <circle cx="693"  cy="90" r="60" fill="#FF1493"/><text x="693"  y="178">#FF1493</text>
    <circle cx="847"  cy="90" r="60" fill="#FF69B4"/><text x="847"  y="178">#FF69B4</text>
    <circle cx="1001" cy="90" r="60" fill="#00CED1"/><text x="1001" y="178">#00CED1</text>
    <circle cx="1155" cy="90" r="60" fill="#40E0D0"/><text x="1155" y="178">#40E0D0</text>
    <circle cx="1309" cy="90" r="60" fill="#4682B4"/><text x="1309" y="178">#4682B4</text>
    <circle cx="1463" cy="90" r="60" fill="#191970"/><text x="1463" y="178">#191970</text>
    <!-- Row 2 -->
    <circle cx="77"   cy="260" r="60" fill="#151B4D"/><text x="77"   y="348">#151B4D</text>
    <circle cx="231"  cy="260" r="60" fill="#2C2971"/><text x="231"  y="348">#2C2971</text>
    <circle cx="385"  cy="260" r="60" fill="#512A94"/><text x="385"  y="348">#512A94</text>
    <circle cx="539"  cy="260" r="60" fill="#9B30FF"/><text x="539"  y="348">#9B30FF</text>
    <circle cx="693"  cy="260" r="60" fill="#FF4F9A"/><text x="693"  y="348">#FF4F9A</text>
    <circle cx="847"  cy="260" r="60" fill="#FF85A1"/><text x="847"  y="348">#FF85A1</text>
    <circle cx="1001" cy="260" r="60" fill="#00B2A9"/><text x="1001" y="348">#00B2A9</text>
    <circle cx="1155" cy="260" r="60" fill="#39D4B7"/><text x="1155" y="348">#39D4B7</text>
    <circle cx="1309" cy="260" r="60" fill="#5179AC"/><text x="1309" y="348">#5179AC</text>
    <circle cx="1463" cy="260" r="60" fill="#2A235D"/><text x="1463" y="348">#2A235D</text>
    <!-- Row 3 -->
    <circle cx="77"   cy="430" r="60" fill="#21295F"/><text x="77"   y="518">#21295F</text>
    <circle cx="231"  cy="430" r="60" fill="#353B85"/><text x="231"  y="518">#353B85</text>
    <circle cx="385"  cy="430" r="60" fill="#663AA3"/><text x="385"  y="518">#663AA3</text>
    <circle cx="539"  cy="430" r="60" fill="#A052E4"/><text x="539"  y="518">#A052E4</text>
    <circle cx="693"  cy="430" r="60" fill="#FF007F"/><text x="693"  y="518">#FF007F</text>
    <circle cx="847"  cy="430" r="60" fill="#FF78A9"/><text x="847"  y="518">#FF78A9</text>
    <circle cx="1001" cy="430" r="60" fill="#009BA0"/><text x="1001" y="518">#009BA0</text>
    <circle cx="1155" cy="430" r="60" fill="#2DC3C1"/><text x="1155" y="518">#2DC3C1</text>
    <circle cx="1309" cy="430" r="60" fill="#5C8BC0"/><text x="1309" y="518">#5C8BC0</text>
    <circle cx="1463" cy="430" r="60" fill="#33386D"/><text x="1463" y="518">#33386D</text>
  </g>
</svg>
