<?xml version="1.0" encoding="utf-8"?>
<!-- Generator: Adobe Illustrator 19.0.0, SVG Export Plug-In . SVG Version: 6.00 Build 0)  -->
<svg xmlns="http://www.w3.org/2000/svg" xmlns:xlink="http://www.w3.org/1999/xlink" version="1.1" x="0px" y="0px" viewBox="0 0 1400 980" style="enable-background:new 0 0 1400 980;" xml:space="preserve">
<style type="text/css">
	.st0{fill:url(#SVGID_1_);}
	.st1{fill:#58595B;}
</style>
<g id="_x31_">
	
		<radialGradient id="SVGID_1_" cx="700" cy="490" r="918.6221" gradientTransform="matrix(1 0 0 0.804 0 96.0184)" gradientUnits="userSpaceOnUse">
		<stop offset="0" style="stop-color:#FFFFFF"/>
		<stop offset="0.4283" style="stop-color:#FBFCFC"/>
		<stop offset="0.6411" style="stop-color:#F4F4F4"/>
		<stop offset="0.8063" style="stop-color:#E8E9EA"/>
		<stop offset="0.9463" style="stop-color:#D9DADC"/>
		<stop offset="1" style="stop-color:#D1D3D4"/>
	</radialGradient>
	
	<g>
		<g>
			<path d="M257.4,670.4v-74.9h-17.3c-22.3,0-40.3,18.1-40.3,40.3v34.6H257.4z"/>
		</g>
		<g>
			<path d="M270,670.4h57.6v-34.6c0-22.3-18.1-40.3-40.3-40.3H270V670.4z"/>
		</g>
		<g>
			<path d="M199.8,683.1v58.5c0,35.3,28.6,63.9,63.9,63.9s63.9-28.6,63.9-63.9v-58.5H199.8z"/>
		</g>
	</g>
	<g>
		<g>
			<path d="M685,590.9h-47.2c-22.3,0-40.3,18.1-40.3,40.3V737c0,35.3,28.6,63.9,63.9,63.9c35.3,0,63.9-28.6,63.9-63.9V631.2     C725.3,608.9,707.3,590.9,685,590.9z M673,664.9c0,6.4-5.2,11.6-11.6,11.6c-6.4,0-11.6-5.2-11.6-11.6v-27     c0-6.4,5.2-11.6,11.6-11.6c6.4,0,11.6,5.2,11.6,11.6V664.9z"/>
		</g>
	</g>
	<g>
		<g>
			<g>
				<path d="M1074,670.4v-74.9h-17.3c-22.3,0-40.3,18.1-40.3,40.3v34.6H1074z"/>
			</g>
			<g>
				<path d="M1086.6,670.4h57.6v-34.6c0-22.3-18.1-40.3-40.3-40.3h-17.3V670.4z"/>
			</g>
			<g>
				<path d="M1016.4,683.1v58.5c0,35.3,28.6,63.9,63.9,63.9s63.9-28.6,63.9-63.9v-58.5H1016.4z"/>
			</g>
		</g>
		<g>
			<g>
				<path d="M1088.9,583h-16.2v-12.4c0-6-7.2-16.2-34.4-16.2c-15.2,0-23.4-6.5-27.6-11.9c-11.7-15-6.3-37.8-5.6-40.3l15.7,4      c-1.2,4.8-3.1,18.9,2.8,26.4c3,3.8,7.8,5.6,14.8,5.6c49.2,0,50.6,29.1,50.6,32.4V583z"/>
			</g>
		</g>
	</g>
	<g>
		<g>
			<g>
				<path d="M263.2,148.9h-18.5c-23.8,0-43.1,19.3-43.1,43.1v37h61.6V148.9z"/>
			</g>
			<g>
				<path d="M295.2,148.9h-18.5v80.1v13.5h-75.1v62.6c0,37.7,30.6,68.3,68.3,68.3c37.7,0,68.3-30.6,68.3-68.3v-56.4v-6.2v-13.5v-37      C338.3,168.2,319,148.9,295.2,148.9z"/>
			</g>
		</g>
		<g>
			<g>
				<rect x="146.2" y="164.7" transform="matrix(0.9367 0.3501 -0.3501 0.9367 71.1085 -47.7387)" width="42.8" height="16.2"/>
			</g>
		</g>
		<g>
			<g>
				<polygon points="207,152.4 178.2,123.2 189.8,111.8 218.5,141     "/>
			</g>
		</g>
		<g>
			<g>
				<rect x="232.6" y="96.9" width="16.2" height="39.7"/>
			</g>
		</g>
	</g>
	<g>
		<g>
			<g>
				<path d="M1080.5,148.9h18.5c23.8,0,43.1,19.3,43.1,43.1v37h-61.6V148.9z"/>
			</g>
			<g>
				<path d="M1048.5,148.9h18.5v80.1v13.5h75.1v62.6c0,37.7-30.6,68.3-68.3,68.3c-37.7,0-68.3-30.6-68.3-68.3v-56.4v-6.2v-13.5v-37      C1005.4,168.2,1024.7,148.9,1048.5,148.9z"/>
			</g>
		</g>
		<g>
			<g>
				
					<rect x="1154.6" y="164.7" transform="matrix(-0.9367 0.3501 -0.3501 -0.9367 2338.1387 -77.0093)" width="42.8" height="16.2"/>
			</g>
		</g>
		<g>
			<g>
				<polygon points="1136.6,152.4 1165.4,123.2 1153.9,111.8 1125.1,141     "/>
			</g>
		</g>
		<g>
			<g>
				<rect x="1094.8" y="96.9" width="16.2" height="39.7"/>
			</g>
		</g>
	</g>
	<g>
		<path d="M210.8,893.8l-0.2-27.9c0-3.1,0-6.2,0.1-9.3l2-1.1c1.4,0.1,3.1,3.9,4.9,11.5c1.5,6.2,2.7,11.7,3.6,16.6    c0.9,4.9,1.4,7.6,1.5,8c0.3-1.5,0.9-4.3,1.8-8.3c0.9-4,1.6-7.1,2-9.3c1.3-6.4,2.1-12.2,2.4-17.2v-0.4c0.1-0.6,0.4-1.1,0.9-1.5    c0.5-0.4,1-0.6,1.5-0.6c0.5,0,1,0.2,1.3,0.6c0.3,0.4,0.5,0.8,0.5,1.2c0,5.7,0.2,14.3,0.7,25.8c0.4,11.5,0.7,20.1,0.7,25.8    c0,1.1-0.3,2.1-0.9,3c-0.6,0.8-1.2,1.3-1.8,1.3c-1.2,0-1.8-0.9-1.8-2.8l-0.3-30.3v-3.7c-0.3,1.9-1.1,5.1-2.2,9.7    c-1.1,4.6-1.9,8.2-2.2,10.6v0.5c0,0.2-0.1,0.6-0.2,1.3c-0.1,0.7-0.2,1.3-0.3,1.7c-0.1,0.5-0.3,1-0.5,1.5c-0.4,1.1-1.2,1.7-2.2,1.7    c-1.7,0-2.6-2.2-2.6-6.7c0-4.4-1.1-10.6-3.2-18.6c-1.1-4-1.8-6.7-2.1-8.1c-0.1,3.8-0.1,6.7-0.1,8.7l0.6,29.6c0,1-0.4,1.9-1.1,2.7    c-1.2,0-2.1-0.4-2.5-1.2c-0.4-0.8-0.7-1.9-0.7-3.2L210.8,893.8z"/>
		<path d="M257.3,888.4l-0.6,9.1v0.3c-0.3,1.3-0.5,2.8-0.5,4.3c0,1.5-0.3,3-0.8,4.5c-0.5,1.4-1.4,2.7-2.5,3.8    c-1.1,1.1-2.3,1.7-3.6,1.7s-2.5-0.4-3.6-1.3c-1.1-0.9-2-2-2.7-3.4c-0.7-1.4-1.3-3.1-1.9-5c-0.5-1.9-1-3.8-1.2-5.7    c-0.3-1.8-0.5-3.8-0.7-5.8c-0.3-3.1-0.4-5.5-0.4-7.3c0-1.7,0-3.2,0-4.4c0-1.2,0-2.3-0.1-3.3c0-0.5,0-1,0-1.6c0-0.6,0-1.2,0-1.9    c0-1.4,0.1-2.6,0.1-3.7c0.1-1.1,0.2-2.3,0.3-3.6c0.2-1.3,0.3-2.4,0.6-3.4c0.2-1,0.6-1.9,0.9-2.9c0.4-1,0.9-1.7,1.4-2.4    c1.2-1.4,2.5-2,4-2c1.5,0,2.8,0.3,3.9,0.8c1.1,0.6,2,1.4,2.7,2.7c0.7,1.2,1.4,2.4,1.9,3.6c0.6,1.1,1,2.7,1.3,4.8    c0.3,2.1,0.6,3.7,0.8,5c0.2,1.3,0.3,3.1,0.4,5.5c0.1,3.2,0.1,5.7,0.1,7.5V888.4z M251,862c-0.5-1.2-1.1-2.2-1.8-2.8    c-0.7-0.7-1.4-1-2.1-1s-1.3,0.2-1.7,0.7c-0.5,0.5-0.8,1.2-1.2,2.1c-0.3,0.9-0.6,1.9-0.8,2.9c-0.2,1-0.4,2.2-0.6,3.6    c-0.1,1.3-0.2,2.6-0.3,3.7c-0.1,1.1-0.1,2.3-0.2,3.6c0,2.2-0.1,3.9-0.1,5.1v0.3c0,3.2,0.2,6.7,0.7,10.4c0.5,3.7,1,6.8,1.5,9.1    c0.5,2.4,1.2,4.4,2.1,6c0.9,1.7,1.9,2.5,3,2.5c1,0,1.8-0.9,2.4-2.7c0.7-1.8,1.1-4.1,1.4-6.8c0.5-4.8,0.7-8.1,0.7-10.1    c0-1.9,0-3.3,0-4.2c0-0.9,0-2.2-0.1-3.9c-0.1-1.7-0.2-3.3-0.3-4.8c-0.1-1.5-0.3-3.1-0.5-4.9c-0.2-1.8-0.5-3.4-0.9-4.8    C251.9,864.6,251.4,863.3,251,862z"/>
		<path d="M261.6,870.9l0.1-11.2c-0.4-0.4-0.5-0.9-0.5-1.5c0-0.6,0.2-1.1,0.6-1.5c0.4-0.4,0.9-0.7,1.5-0.7c1.7,0,2.6,1.7,2.6,5.1    l0.7,25c0.3,0.6,0.5,1.9,0.7,3.8c0.2,1.9,0.3,3.4,0.3,4.5s0.2,2.4,0.5,3.9c0.3,1.6,0.8,3.1,1.4,4.7c0.6,1.6,1.4,3,2.4,4.1    s2,1.7,2.9,1.7c0.9,0,1.6-0.2,2-0.7c0.4-0.4,0.8-1,0.9-1.8c0.3-1.3,0.4-2.6,0.4-4v-14.1c0-1.5-0.2-3.8-0.5-6.8s-0.5-5.3-0.5-6.8    v-0.5l-0.1-4.2l-0.5-12.3c0-0.6,0.3-1.1,0.9-1.4c0.6-0.4,1.2-0.5,1.8-0.5l1.8,1.7v1.2l-0.5,4.4c0,4,0.2,10,0.7,18.1    c0.4,8.1,0.7,13.5,0.7,16.4c0,2.8,0,4.7-0.1,5.7c-0.1,0.9-0.3,2-0.5,3c-0.3,1.1-0.7,2-1.2,2.7c-1.1,1.6-2.9,2.5-5.3,2.5    c-2.9,0-5.3-1.3-7.1-3.8c-1.9-2.7-3.2-6-3.9-9.8c-0.9-4.5-1.4-8.4-1.6-11.8C261.7,880.9,261.6,875.9,261.6,870.9z"/>
		<path d="M285.6,909.3c0-1.3,0.5-1.9,1.6-1.9c0.5,0,1.2,0.2,2.1,0.5c0.9,0.4,1.6,0.5,2.3,0.5s1.3-0.4,2.1-1.2s1.3-1.8,1.8-3.1    c0.9-2.5,1.3-4.7,1.3-6.7c0-2-0.4-4.2-1.1-6.5c-0.7-2.3-1.6-4.5-2.6-6.5c-1-2-2-4-3.1-6c-2.4-4.8-3.6-9.2-3.6-13.1    c0-3.8,1.2-6.7,3.6-8.8c1.3-1.1,2.8-1.7,4.5-1.7c0.9,0,1.7,0.2,2.5,0.7c0.8,0.5,1.4,1.1,1.7,1.9l-1.2,1.5c-1.2,0-2.1-0.2-2.8-0.7    c-0.9,0.1-1.7,0.5-2.3,1.3c-1.2,1.4-1.8,3.1-1.8,5.1c0,2,0.3,4,0.8,5.9c0.5,1.9,1.2,3.6,1.9,5.2c0.8,1.5,1.6,3.2,2.5,5    c0.9,1.8,1.8,3.5,2.5,5.1c1.8,3.8,2.7,7.9,2.7,12.3c0,3.1-0.8,6.1-2.4,8.9c-0.8,1.4-1.8,2.5-3.1,3.4c-1.3,0.9-2.8,1.3-4.4,1.3    c-1.7,0-3.1-0.3-4.1-0.8C286.1,910.4,285.6,909.9,285.6,909.3z"/>
		<path d="M313,883.7l-1.8-0.1c-0.7,0-1.2,0.2-1.5,0.5v22.2c2.5-0.1,3.8-0.2,4-0.2c2.7,0,4.1,0.6,4.1,1.9v0.2    c-0.3,0.7-0.9,1.2-1.7,1.5c-0.8,0.4-1.5,0.6-2.1,0.6c-0.6,0-1.4,0.1-2.4,0.1h-2.2c-1.8,0-2.9-0.4-3.3-1.1    c-0.2-0.3-0.3-0.8-0.3-1.3v-41.8c0-0.8-0.2-2-0.5-3.7c-0.3-1.6-0.5-2.8-0.5-3.7v-0.2c0.8-1.3,1.4-2.2,1.8-2.5l5.3-0.6    c0.7,0,1.5,0.2,2.2,0.7c0.7,0.4,1.1,1,1.1,1.7c0,1.4-1.1,2.1-3.3,2.1L310,860c-0.4,0-0.6,0-0.8,0l0.6,11.9c0,1-0.1,2.4-0.2,4.2    c-0.1,1.8-0.2,3.2-0.2,4c0.3,0,0.6-0.1,1.1-0.2c1-0.3,1.8-0.4,2.3-0.4c0.6,0,1,0.2,1.5,0.6c0.4,0.4,0.7,0.9,0.7,1.4    s-0.2,1.1-0.5,1.5C314,883.5,313.5,883.7,313,883.7z"/>
	</g>
	<g>
		<path d="M617,901.8c0-1.3,0.5-1.9,1.6-1.9c0.5,0,1.2,0.2,2.1,0.5c0.9,0.4,1.6,0.5,2.3,0.5c0.6,0,1.3-0.4,2.1-1.2    c0.8-0.8,1.3-1.8,1.8-3.1c0.9-2.5,1.3-4.7,1.3-6.7c0-2-0.4-4.2-1.1-6.5c-0.7-2.3-1.6-4.5-2.6-6.5c-1-2-2-4-3.1-6    c-2.4-4.8-3.6-9.2-3.6-13.1c0-3.8,1.2-6.7,3.6-8.8c1.3-1.1,2.8-1.7,4.5-1.7c0.9,0,1.7,0.2,2.5,0.7c0.8,0.5,1.4,1.1,1.7,1.9    l-1.2,1.5c-1.2,0-2.1-0.2-2.8-0.7c-0.9,0.1-1.7,0.5-2.3,1.3c-1.2,1.4-1.8,3.1-1.8,5.1s0.3,4,0.8,5.9c0.5,1.9,1.2,3.6,1.9,5.2    c0.8,1.5,1.6,3.2,2.5,5c0.9,1.8,1.8,3.5,2.5,5.1c1.8,3.8,2.7,7.9,2.7,12.3c0,3.1-0.8,6.1-2.4,8.9c-0.8,1.4-1.8,2.5-3.1,3.4    s-2.8,1.3-4.4,1.3c-1.7,0-3.1-0.3-4.1-0.8C617.5,903,617,902.4,617,901.8z"/>
		<path d="M640.2,867.6l-0.6,5v1.7c0,5.6,0.1,9.3,0.4,11.1c0.2,1.8,0.5,3.4,0.8,4.9c0.3,1.4,0.6,2.6,1,3.7c0.4,1,0.9,2,1.5,2.8    c1.1,1.8,2.7,2.7,4.7,2.7c0.8,0,1.8-0.4,3.1-1.3c1.2-0.9,2.1-1.3,2.8-1.3c0.6,0,1.3,0.4,2,1.1c0,2.4-1.4,4.1-4.1,5.2    c-1.4,0.5-2.8,0.7-4.4,0.7s-3-0.3-4.1-1c-1.1-0.6-2.1-1.5-2.8-2.5c-0.8-1-1.4-2.3-2-3.9c-0.6-1.6-1-3.2-1.3-4.7    c-0.3-1.6-0.5-3.4-0.7-5.5c-0.3-3.5-0.4-7.3-0.5-11.4l0.1-8.6c0-2.7,0.2-5,0.5-6.6c-0.1-0.8-0.2-1.5-0.2-2.2c0-3,1.1-5.3,3.3-7    s4.9-2.6,8.2-2.6c1.1,0,2.3,0.3,3.4,1c1.1,0.6,1.7,1.5,1.7,2.5c0,0.5-0.2,0.9-0.6,1.2c-0.4,0.3-1.1,0.4-2,0.4    c-0.9,0-1.6-0.3-2-0.9v0h-1v-0.2c-2.8,0-4.7,0.9-5.7,2.6c-0.9,1.6-1.4,4.3-1.4,8.2L640.2,867.6z"/>
		<path d="M659.6,900.6l0.3-42.2v-8.9c0-0.6,0.1-1,0.4-1.2c0.2-0.2,0.8-0.4,1.8-0.4s2,0.2,3,0.7c1,0.5,1.9,1.1,2.6,1.9    c0.7,0.8,1.3,1.8,1.8,2.8c0.9,2,1.4,4.2,1.4,6.5c0,2.3-0.6,5-1.8,8.1c-0.1,0.3-0.4,1-0.8,2.1c-0.4,1.1-0.7,1.7-0.7,1.9    c0,3.6,0.9,8.2,2.7,13.9c0.6,1.9,1.5,4.6,2.6,7.9c1.1,3.3,1.8,5.5,2.1,6.3v0.2c0,1.6-0.2,2.6-0.6,2.8c-0.4,0.3-0.8,0.4-1.2,0.4    c-0.9,0-1.8-0.6-2.6-1.9v-0.2c-0.2-4.4-1.7-11-4.5-19.8c-1.3-4-2.1-7-2.6-9v28.4c0,0.7-0.1,1.3-0.4,1.7c-0.3,0.4-0.7,0.6-1.4,0.6    c-0.7,0-1.2-0.2-1.5-0.6c-0.3-0.4-0.5-0.9-0.5-1.4V900.6z M663.5,851.3l-0.4,14.7c0,1.5,0,2.6,0.1,3.3c0.8-0.8,1.6-1.7,2.4-2.8    l1.1-6.2c0.1-0.3,0.1-0.7,0.1-1.1c0-1.1-0.2-2.5-0.7-4.2C665.5,852.7,664.6,851.5,663.5,851.3z"/>
		<path d="M694.6,881l-0.6,9.1v0.3c-0.3,1.3-0.5,2.8-0.5,4.3c0,1.5-0.3,3-0.8,4.5c-0.5,1.4-1.4,2.7-2.5,3.8    c-1.1,1.1-2.3,1.7-3.6,1.7s-2.5-0.4-3.6-1.3c-1.1-0.9-2-2-2.7-3.4c-0.7-1.4-1.3-3.1-1.9-5c-0.5-1.9-1-3.8-1.2-5.7    c-0.3-1.8-0.5-3.8-0.7-5.8c-0.3-3.1-0.4-5.5-0.4-7.3s0-3.2,0-4.4c0-1.2,0-2.3-0.1-3.3c0-0.5,0-1,0-1.6c0-0.6,0-1.2,0-1.9    c0-1.4,0.1-2.6,0.1-3.7s0.2-2.3,0.3-3.6c0.2-1.3,0.3-2.4,0.6-3.4c0.2-1,0.6-1.9,0.9-2.9c0.4-1,0.9-1.7,1.4-2.4c1.2-1.4,2.5-2,4-2    c1.5,0,2.8,0.3,3.9,0.8c1.1,0.6,2,1.4,2.7,2.7c0.7,1.2,1.4,2.4,1.9,3.6c0.6,1.1,1,2.7,1.3,4.8c0.3,2.1,0.6,3.7,0.8,5    c0.2,1.3,0.3,3.1,0.4,5.5c0.1,3.2,0.1,5.7,0.1,7.5V881z M688.2,854.6c-0.5-1.2-1.1-2.2-1.8-2.8c-0.7-0.7-1.4-1-2.1-1    c-0.7,0-1.3,0.2-1.7,0.7c-0.5,0.5-0.8,1.2-1.2,2.1c-0.3,0.9-0.6,1.9-0.8,2.9s-0.4,2.2-0.6,3.6c-0.1,1.3-0.2,2.6-0.3,3.7    c-0.1,1.1-0.1,2.3-0.2,3.6c0,2.2-0.1,3.9-0.1,5.1v0.3c0,3.2,0.2,6.7,0.7,10.4c0.5,3.7,1,6.8,1.5,9.1c0.5,2.4,1.2,4.4,2.1,6    c0.9,1.7,1.9,2.5,3,2.5c1,0,1.8-0.9,2.4-2.7c0.7-1.8,1.1-4.1,1.4-6.8c0.5-4.8,0.7-8.1,0.7-10.1s0-3.3,0-4.2c0-0.9,0-2.2-0.1-3.9    c-0.1-1.7-0.2-3.3-0.3-4.8c-0.1-1.5-0.3-3.1-0.5-4.9c-0.2-1.8-0.5-3.4-0.9-4.8C689.1,857.2,688.7,855.8,688.2,854.6z"/>
		<path d="M703.7,875.4l0.1,2.3v0.3c0.2,4.2,0.3,10.4,0.3,18.8v1.8h5.5c1,0.7,1.5,1.4,1.5,2c0,0.6-0.2,1.2-0.5,1.6    c-0.4,0.4-0.7,0.6-1.1,0.6s-0.8-0.1-1.3-0.2c-0.4,0.1-0.9,0.1-1.4,0.1l-2.3-0.1c-0.5,0.6-1.1,0.9-1.8,0.9c-0.7,0-1.4-0.2-1.9-0.7    c-0.5-0.5-0.8-1-0.8-1.6l0.5-3.2c0-5.5-0.2-13.6-0.7-24.6c-0.5-10.9-0.7-19.1-0.7-24.6c0-0.4,0.2-0.8,0.5-1.1    c0.4-0.3,0.8-0.4,1.3-0.4c0.5,0,1,0.2,1.4,0.6c0.4,0.4,0.7,0.9,0.7,1.5L703.7,875.4z"/>
		<path d="M718.8,875.4l0.1,2.3v0.3c0.2,4.2,0.3,10.4,0.3,18.8v1.8h5.5c1,0.7,1.5,1.4,1.5,2c0,0.6-0.2,1.2-0.5,1.6    c-0.4,0.4-0.7,0.6-1.1,0.6s-0.8-0.1-1.3-0.2c-0.4,0.1-0.9,0.1-1.4,0.1l-2.3-0.1c-0.5,0.6-1.1,0.9-1.8,0.9s-1.4-0.2-1.9-0.7    c-0.5-0.5-0.8-1-0.8-1.6l0.5-3.2c0-5.5-0.2-13.6-0.7-24.6c-0.5-10.9-0.7-19.1-0.7-24.6c0-0.4,0.2-0.8,0.5-1.1    c0.4-0.3,0.8-0.4,1.3-0.4c0.5,0,1,0.2,1.4,0.6c0.4,0.4,0.7,0.9,0.7,1.5L718.8,875.4z"/>
	</g>
	<g>
		<path d="M1002.4,908.6c0,0.7-0.2,1.3-0.5,1.8s-0.9,0.7-1.6,0.7c-1.7,0-3.9-9.2-6.5-27.7c-0.4-2.7-0.6-4.3-0.7-4.7    c-0.9,6.4-1.6,11.9-2,16.6c-0.5,4.7-0.7,9.3-0.7,13.8c0,0.5-0.2,1-0.7,1.4c-0.4,0.4-0.9,0.6-1.4,0.6c-1.8,0-2.6-1.8-2.6-5.5    c0-2.2-1-10.5-3-24.7c-2-14.2-3.2-22-3.8-23.3c0.6-1.1,1.5-1.7,2.6-1.7c1.1,0,2.1,2.5,3,7.5c0.9,5,1.7,11,2.3,18.2    c0.6,7.1,1,10.7,1,10.8c0.1-0.7,0.3-2.7,0.7-6.1c0.4-3.4,0.7-6.1,1-8.2c0.7-6.2,1.1-10.7,1.1-13.3v-1.4c0-0.5,0.2-1,0.6-1.5    c0.4-0.5,0.8-0.7,1.3-0.7c1.7,0,2.6,0.7,2.6,2.1v1.1c0,4.6,1.1,11.4,3.2,20.1c0.9,3.8,1.6,6.9,2,9.2c0.3-2.6,0.7-6.5,1.4-11.5    c1.5-10.9,2.2-19.3,2.2-25.2c0-1.1,0.2-1.8,0.5-2.3c0.4-0.5,0.9-0.7,1.7-0.7c0.8,0,1.4,0.2,1.9,0.6c0.5,0.4,0.7,0.9,0.7,1.4    c0,0.6-0.2,1.1-0.7,1.6c0,7-0.9,15.5-2.7,25.4C1003.3,893.1,1002.4,901.6,1002.4,908.6z"/>
		<path d="M1020.1,859.4l-1.3,0c-0.5,0-0.8,0.1-1,0.3c-0.2,0.2-0.3,0.6-0.3,1.2c0,4.7,0.3,11.7,0.9,21.1c0.6,9.4,0.9,16.4,0.9,21.1    v2.8c0.5-0.1,1-0.1,1.5-0.1c2,0,3,0.8,3,2.5v0.4l-1.8,1.2l-4.9,0.2c-4.1,0-6.2-0.7-6.2-2.1c0-1.1,0.7-1.7,2.2-1.7l1.5,0.1    c0.7,0,1.1-0.6,1.1-1.7c0-3.7-0.2-9.3-0.7-16.6c-0.4-7.4-0.7-12.9-0.7-16.6l0.1-7.3c0-1.5-0.1-2.9-0.2-4c-0.6,0.2-1.2,0.3-1.7,0.3    c-1.1,0-1.7-0.6-1.7-1.7c0-0.6,0.4-1.1,1.1-1.5c0.7-0.4,1.6-0.7,2.7-0.9c2-0.4,3.5-0.5,4.5-0.5c1,0,1.7,0.2,2.1,0.6    c0.4,0.4,0.6,0.8,0.6,1.4c0,0.5-0.2,1-0.5,1.4C1021,859.2,1020.6,859.4,1020.1,859.4z"/>
		<path d="M1027.5,908l0.3-42.2v-8.9c0-0.6,0.1-1,0.4-1.2c0.2-0.2,0.8-0.4,1.8-0.4s2,0.2,3,0.7c1,0.5,1.9,1.1,2.6,1.9    c0.7,0.8,1.3,1.8,1.8,2.8c0.9,2,1.4,4.2,1.4,6.5s-0.6,5-1.8,8.1c-0.1,0.3-0.4,1-0.8,2.1c-0.4,1.1-0.7,1.7-0.7,1.9    c0,3.6,0.9,8.2,2.7,13.9c0.6,1.9,1.5,4.6,2.6,7.9c1.1,3.3,1.8,5.5,2.1,6.3v0.2c0,1.6-0.2,2.6-0.6,2.8c-0.4,0.3-0.8,0.4-1.2,0.4    c-0.9,0-1.8-0.6-2.6-1.9v-0.2c-0.2-4.4-1.7-11-4.5-19.8c-1.3-4-2.1-7-2.6-9v28.4c0,0.7-0.1,1.3-0.4,1.7c-0.3,0.4-0.7,0.6-1.4,0.6    s-1.2-0.2-1.5-0.6c-0.3-0.4-0.5-0.9-0.5-1.4V908z M1031.4,858.7l-0.4,14.7c0,1.5,0,2.6,0.1,3.3c0.8-0.8,1.6-1.7,2.4-2.8l1.1-6.2    c0.1-0.3,0.1-0.7,0.1-1.1c0-1.1-0.2-2.5-0.7-4.2C1033.4,860.1,1032.5,858.9,1031.4,858.7z"/>
		<path d="M1054.3,883.7l-1.8-0.1c-0.7,0-1.2,0.2-1.5,0.5v22.2c2.5-0.1,3.8-0.2,4-0.2c2.7,0,4.1,0.6,4.1,1.9v0.2    c-0.3,0.7-0.9,1.2-1.7,1.5c-0.8,0.4-1.5,0.6-2.1,0.6c-0.6,0-1.4,0.1-2.4,0.1h-2.2c-1.8,0-2.9-0.4-3.3-1.1    c-0.2-0.3-0.3-0.8-0.3-1.3v-41.8c0-0.8-0.2-2-0.5-3.7c-0.3-1.6-0.5-2.8-0.5-3.7v-0.2c0.8-1.3,1.4-2.2,1.8-2.5l5.3-0.6    c0.7,0,1.5,0.2,2.2,0.7c0.7,0.4,1.1,1,1.1,1.7c0,1.4-1.1,2.1-3.3,2.1l-2.1-0.1c-0.4,0-0.6,0-0.8,0l0.6,11.9c0,1-0.1,2.4-0.2,4.2    c-0.1,1.8-0.2,3.2-0.2,4c0.3,0,0.6-0.1,1.1-0.2c1-0.3,1.8-0.4,2.3-0.4c0.6,0,1,0.2,1.5,0.6c0.4,0.4,0.7,0.9,0.7,1.4    s-0.2,1.1-0.5,1.5C1055.3,883.5,1054.8,883.7,1054.3,883.7z"/>
		<path d="M1080.7,883.6l0.2,1.5c0,3.4-0.9,7.4-2.7,12c-2.1,5.3-4.5,9-7.3,11.2c-1.6,1.3-3.2,1.9-4.9,1.9c-0.9,0-1.7-0.2-2.4-0.6    c-0.7-0.4-1.1-1-1.1-1.8c1.1-1.1,1.6-3.9,1.6-8.5c0-2.7-0.2-6.6-0.7-11.9c-0.4-5.3-0.7-9.2-0.7-11.8l0.2-7.9c0-1.3-0.3-3-0.8-5.1    c-0.5-2.1-0.8-3.7-0.8-4.6c0-1.7,1.8-2.5,5.5-2.5h1.1c4.9,0,8.4,2.7,10.7,8.2c1.5,3.8,2.3,9.1,2.3,15.8v3.3    C1080.8,883.1,1080.7,883.4,1080.7,883.6z M1067.5,899.2v6.9c1.8-1.2,3.4-2.8,4.7-4.9c1.3-2.1,2.4-4.4,3.1-6.9    c1.3-4.8,2-9.5,2-14.2c0-5.4-0.7-9.7-2-12.9c-1.4-3.2-3.1-5.4-5.1-6.4c-1.3-0.7-2.7-1-4.3-0.9v0.1c0,4.3,0.3,10.9,0.9,19.6    C1067.2,888.2,1067.5,894.8,1067.5,899.2z"/>
		<path d="M1094.1,893.8l-0.2-27.9c0-3.1,0-6.2,0.1-9.3l2-1.1c1.4,0.1,3.1,3.9,4.9,11.5c1.5,6.2,2.7,11.7,3.6,16.6    c0.9,4.9,1.4,7.6,1.5,8c0.3-1.5,0.9-4.3,1.8-8.3c0.9-4,1.6-7.1,2-9.3c1.3-6.4,2.1-12.2,2.4-17.2v-0.4c0.1-0.6,0.4-1.1,0.9-1.5    s1-0.6,1.5-0.6c0.5,0,1,0.2,1.3,0.6c0.3,0.4,0.5,0.8,0.5,1.2c0,5.7,0.2,14.3,0.7,25.8c0.4,11.5,0.7,20.1,0.7,25.8    c0,1.1-0.3,2.1-0.9,3c-0.6,0.8-1.2,1.3-1.8,1.3c-1.2,0-1.8-0.9-1.8-2.8l-0.3-30.3v-3.7c-0.3,1.9-1.1,5.1-2.2,9.7    s-1.9,8.2-2.2,10.6v0.5c0,0.2-0.1,0.6-0.2,1.3c-0.1,0.7-0.2,1.3-0.3,1.7c-0.1,0.5-0.3,1-0.5,1.5c-0.4,1.1-1.2,1.7-2.2,1.7    c-1.7,0-2.6-2.2-2.6-6.7c0-4.4-1.1-10.6-3.2-18.6c-1.1-4-1.8-6.7-2.1-8.1c-0.1,3.8-0.1,6.7-0.1,8.7l0.6,29.6c0,1-0.4,1.9-1.1,2.7    c-1.2,0-2.1-0.4-2.5-1.2c-0.4-0.8-0.7-1.9-0.7-3.2L1094.1,893.8z"/>
		<path d="M1140.6,888.4l-0.6,9.1v0.3c-0.3,1.3-0.5,2.8-0.5,4.3c0,1.5-0.3,3-0.8,4.5c-0.5,1.4-1.4,2.7-2.5,3.8    c-1.1,1.1-2.3,1.7-3.6,1.7s-2.5-0.4-3.6-1.3s-2-2-2.7-3.4c-0.7-1.4-1.3-3.1-1.9-5c-0.5-1.9-1-3.8-1.2-5.7    c-0.3-1.8-0.5-3.8-0.7-5.8c-0.3-3.1-0.4-5.5-0.4-7.3c0-1.7,0-3.2,0-4.4c0-1.2,0-2.3-0.1-3.3c0-0.5,0-1,0-1.6c0-0.6,0-1.2,0-1.9    c0-1.4,0.1-2.6,0.1-3.7s0.2-2.3,0.3-3.6c0.2-1.3,0.3-2.4,0.6-3.4c0.2-1,0.6-1.9,0.9-2.9c0.4-1,0.9-1.7,1.4-2.4c1.2-1.4,2.5-2,4-2    c1.5,0,2.8,0.3,3.9,0.8c1.1,0.6,2,1.4,2.7,2.7c0.7,1.2,1.4,2.4,1.9,3.6c0.6,1.1,1,2.7,1.3,4.8c0.3,2.1,0.6,3.7,0.8,5    c0.2,1.3,0.3,3.1,0.4,5.5c0.1,3.2,0.1,5.7,0.1,7.5V888.4z M1134.2,862c-0.5-1.2-1.1-2.2-1.8-2.8c-0.7-0.7-1.4-1-2.1-1    s-1.3,0.2-1.7,0.7c-0.5,0.5-0.8,1.2-1.2,2.1s-0.6,1.9-0.8,2.9c-0.2,1-0.4,2.2-0.6,3.6c-0.1,1.3-0.2,2.6-0.3,3.7    c-0.1,1.1-0.1,2.3-0.2,3.6c0,2.2-0.1,3.9-0.1,5.1v0.3c0,3.2,0.2,6.7,0.7,10.4c0.5,3.7,1,6.8,1.5,9.1c0.5,2.4,1.2,4.4,2.1,6    c0.9,1.7,1.9,2.5,3,2.5c1,0,1.8-0.9,2.4-2.7c0.7-1.8,1.1-4.1,1.4-6.8c0.5-4.8,0.7-8.1,0.7-10.1s0-3.3,0-4.2c0-0.9,0-2.2-0.1-3.9    c-0.1-1.7-0.2-3.3-0.3-4.8s-0.3-3.1-0.5-4.9c-0.2-1.8-0.5-3.4-0.9-4.8C1135.1,864.6,1134.7,863.3,1134.2,862z"/>
		<path d="M1144.8,870.9l0.1-11.2c-0.4-0.4-0.5-0.9-0.5-1.5c0-0.6,0.2-1.1,0.6-1.5c0.4-0.4,0.9-0.7,1.5-0.7c1.7,0,2.6,1.7,2.6,5.1    l0.7,25c0.3,0.6,0.5,1.9,0.7,3.8s0.3,3.4,0.3,4.5s0.2,2.4,0.5,3.9c0.3,1.6,0.8,3.1,1.4,4.7c0.6,1.6,1.4,3,2.4,4.1    c1,1.1,2,1.7,2.9,1.7c0.9,0,1.6-0.2,2-0.7c0.4-0.4,0.8-1,0.9-1.8c0.3-1.3,0.4-2.6,0.4-4v-14.1c0-1.5-0.2-3.8-0.5-6.8    s-0.5-5.3-0.5-6.8v-0.5l-0.1-4.2l-0.5-12.3c0-0.6,0.3-1.1,0.9-1.4c0.6-0.4,1.2-0.5,1.8-0.5l1.8,1.7v1.2l-0.5,4.4    c0,4,0.2,10,0.7,18.1s0.7,13.5,0.7,16.4s0,4.7-0.1,5.7c-0.1,0.9-0.3,2-0.5,3s-0.7,2-1.2,2.7c-1.1,1.6-2.9,2.5-5.3,2.5    c-2.9,0-5.3-1.3-7.1-3.8c-1.9-2.7-3.2-6-3.9-9.8c-0.9-4.5-1.4-8.4-1.6-11.8C1145,880.9,1144.8,875.9,1144.8,870.9z"/>
		<path d="M1168.9,909.3c0-1.3,0.5-1.9,1.6-1.9c0.5,0,1.2,0.2,2.1,0.5c0.9,0.4,1.6,0.5,2.3,0.5s1.3-0.4,2.1-1.2    c0.8-0.8,1.3-1.8,1.8-3.1c0.9-2.5,1.3-4.7,1.3-6.7s-0.4-4.2-1.1-6.5c-0.7-2.3-1.6-4.5-2.6-6.5c-1-2-2-4-3.1-6    c-2.4-4.8-3.6-9.2-3.6-13.1c0-3.8,1.2-6.7,3.6-8.8c1.3-1.1,2.8-1.7,4.5-1.7c0.9,0,1.7,0.2,2.5,0.7c0.8,0.5,1.4,1.1,1.7,1.9    l-1.2,1.5c-1.2,0-2.1-0.2-2.8-0.7c-0.9,0.1-1.7,0.5-2.3,1.3c-1.2,1.4-1.8,3.1-1.8,5.1c0,2,0.3,4,0.8,5.9c0.5,1.9,1.2,3.6,1.9,5.2    c0.8,1.5,1.6,3.2,2.5,5c0.9,1.8,1.8,3.5,2.5,5.1c1.8,3.8,2.7,7.9,2.7,12.3c0,3.1-0.8,6.1-2.4,8.9c-0.8,1.4-1.8,2.5-3.1,3.4    s-2.8,1.3-4.4,1.3c-1.7,0-3.1-0.3-4.1-0.8C1169.4,910.4,1168.9,909.9,1168.9,909.3z"/>
		<path d="M1196.3,883.7l-1.8-0.1c-0.7,0-1.2,0.2-1.5,0.5v22.2c2.5-0.1,3.8-0.2,4-0.2c2.7,0,4.1,0.6,4.1,1.9v0.2    c-0.3,0.7-0.9,1.2-1.7,1.5c-0.8,0.4-1.5,0.6-2.1,0.6c-0.6,0-1.4,0.1-2.4,0.1h-2.2c-1.8,0-2.9-0.4-3.3-1.1    c-0.2-0.3-0.3-0.8-0.3-1.3v-41.8c0-0.8-0.2-2-0.5-3.7c-0.3-1.6-0.5-2.8-0.5-3.7v-0.2c0.8-1.3,1.4-2.2,1.8-2.5l5.3-0.6    c0.7,0,1.5,0.2,2.2,0.7c0.7,0.4,1.1,1,1.1,1.7c0,1.4-1.1,2.1-3.3,2.1l-2.1-0.1c-0.4,0-0.6,0-0.8,0l0.6,11.9c0,1-0.1,2.4-0.2,4.2    c-0.1,1.8-0.2,3.2-0.2,4c0.3,0,0.6-0.1,1.1-0.2c1-0.3,1.8-0.4,2.3-0.4c0.6,0,1,0.2,1.5,0.6c0.4,0.4,0.7,0.9,0.7,1.4    s-0.2,1.1-0.5,1.5C1197.3,883.5,1196.8,883.7,1196.3,883.7z"/>
	</g>
	<g>
		<path d="M558.5,474.6c0,0.7-0.2,1.3-0.5,1.8c-0.4,0.5-0.9,0.7-1.6,0.7c-1.7,0-3.9-9.2-6.5-27.7c-0.4-2.7-0.6-4.3-0.7-4.7    c-0.9,6.4-1.6,11.9-2,16.6c-0.5,4.7-0.7,9.3-0.7,13.8c0,0.5-0.2,1-0.7,1.4c-0.4,0.4-0.9,0.6-1.4,0.6c-1.8,0-2.6-1.8-2.6-5.5    c0-2.2-1-10.5-3-24.7c-2-14.2-3.2-22-3.8-23.3c0.6-1.1,1.5-1.7,2.6-1.7c1.1,0,2.1,2.5,3,7.5s1.7,11,2.3,18.2    c0.6,7.1,1,10.7,1,10.8c0.1-0.7,0.3-2.7,0.7-6.1c0.4-3.4,0.7-6.1,1-8.2c0.7-6.2,1.1-10.7,1.1-13.3v-1.4c0-0.5,0.2-1,0.6-1.5    c0.4-0.5,0.8-0.7,1.3-0.7c1.7,0,2.6,0.7,2.6,2.1v1.1c0,4.6,1.1,11.4,3.2,20.1c0.9,3.8,1.6,6.9,2,9.2c0.3-2.6,0.7-6.5,1.4-11.5    c1.5-10.9,2.2-19.3,2.2-25.2c0-1.1,0.2-1.8,0.5-2.3c0.4-0.5,0.9-0.7,1.7-0.7c0.8,0,1.4,0.2,1.9,0.6c0.5,0.4,0.7,0.9,0.7,1.4    c0,0.6-0.2,1.1-0.7,1.6c0,7-0.9,15.5-2.7,25.4C559.4,459.1,558.5,467.6,558.5,474.6z"/>
		<path d="M576.2,425.4l-1.3,0c-0.5,0-0.8,0.1-1,0.3c-0.2,0.2-0.3,0.6-0.3,1.2c0,4.7,0.3,11.7,0.9,21.1c0.6,9.4,0.9,16.4,0.9,21.1    v2.8c0.5-0.1,1-0.1,1.5-0.1c2,0,3,0.8,3,2.5v0.4l-1.8,1.2l-4.9,0.2c-4.1,0-6.2-0.7-6.2-2.1c0-1.1,0.7-1.7,2.2-1.7l1.5,0.1    c0.7,0,1.1-0.6,1.1-1.7c0-3.7-0.2-9.3-0.7-16.6c-0.4-7.4-0.7-12.9-0.7-16.6l0.1-7.3c0-1.5-0.1-2.9-0.2-4c-0.6,0.2-1.2,0.3-1.7,0.3    c-1.1,0-1.7-0.6-1.7-1.7c0-0.6,0.4-1.1,1.1-1.5c0.7-0.4,1.6-0.7,2.7-0.9c2-0.4,3.5-0.5,4.5-0.5c1,0,1.7,0.2,2.1,0.6    c0.4,0.4,0.6,0.8,0.6,1.4c0,0.5-0.2,1-0.5,1.4C577.1,425.2,576.7,425.4,576.2,425.4z"/>
		<path d="M583.6,474l0.3-42.2v-8.9c0-0.6,0.1-1,0.4-1.2c0.2-0.2,0.8-0.4,1.8-0.4c1,0,2,0.2,3,0.7c1,0.5,1.9,1.1,2.6,1.9    c0.7,0.8,1.3,1.8,1.8,2.8c0.9,2,1.4,4.2,1.4,6.5c0,2.3-0.6,5-1.8,8.1c-0.1,0.3-0.4,1-0.8,2.1c-0.4,1.1-0.7,1.7-0.7,1.9    c0,3.6,0.9,8.2,2.7,13.9c0.6,1.9,1.5,4.6,2.6,7.9c1.1,3.3,1.8,5.5,2.1,6.3v0.2c0,1.6-0.2,2.6-0.6,2.8s-0.8,0.4-1.2,0.4    c-0.9,0-1.8-0.6-2.6-1.9v-0.2c-0.2-4.4-1.7-11-4.5-19.8c-1.3-4-2.1-7-2.6-9v28.4c0,0.7-0.1,1.3-0.4,1.7c-0.3,0.4-0.7,0.6-1.4,0.6    c-0.7,0-1.2-0.2-1.5-0.6c-0.3-0.4-0.5-0.9-0.5-1.4V474z M587.5,424.7l-0.4,14.7c0,1.5,0,2.6,0.1,3.3c0.8-0.8,1.6-1.7,2.4-2.8    l1.1-6.2c0.1-0.3,0.1-0.7,0.1-1.1c0-1.1-0.2-2.5-0.7-4.2C589.5,426.1,588.6,424.9,587.5,424.7z"/>
		<path d="M610.4,449.8l-1.8-0.1c-0.7,0-1.2,0.2-1.5,0.5v22.2c2.5-0.1,3.8-0.2,4-0.2c2.7,0,4.1,0.6,4.1,1.9v0.2    c-0.3,0.7-0.9,1.2-1.7,1.5c-0.8,0.4-1.5,0.6-2.1,0.6c-0.6,0-1.4,0.1-2.4,0.1h-2.2c-1.8,0-2.9-0.4-3.3-1.1    c-0.2-0.3-0.3-0.8-0.3-1.3v-41.8c0-0.8-0.2-2-0.5-3.7c-0.3-1.6-0.5-2.8-0.5-3.7v-0.2c0.8-1.3,1.4-2.2,1.8-2.5l5.3-0.6    c0.7,0,1.5,0.2,2.2,0.7c0.7,0.4,1.1,1,1.1,1.7c0,1.4-1.1,2.1-3.3,2.1l-2.1-0.1c-0.4,0-0.6,0-0.8,0l0.6,11.9c0,1-0.1,2.4-0.2,4.2    c-0.1,1.8-0.2,3.2-0.2,4c0.3,0,0.6-0.1,1.1-0.2c1-0.3,1.8-0.4,2.3-0.4c0.6,0,1,0.2,1.5,0.6c0.4,0.4,0.7,0.9,0.7,1.4    s-0.2,1.1-0.5,1.5C611.4,449.5,610.9,449.8,610.4,449.8z"/>
		<path d="M622.9,448.9l0.1,2.3v0.3c0.2,4.2,0.3,10.4,0.3,18.8v1.8h5.5c1,0.7,1.5,1.4,1.5,2c0,0.6-0.2,1.2-0.5,1.6    c-0.4,0.4-0.7,0.6-1.1,0.6s-0.8-0.1-1.3-0.2c-0.4,0.1-0.9,0.1-1.4,0.1l-2.3-0.1c-0.5,0.6-1.1,0.9-1.8,0.9c-0.7,0-1.4-0.2-1.9-0.7    c-0.5-0.5-0.8-1-0.8-1.6l0.5-3.2c0-5.5-0.2-13.6-0.7-24.6c-0.5-10.9-0.7-19.1-0.7-24.6c0-0.4,0.2-0.8,0.5-1.1    c0.4-0.3,0.8-0.4,1.3-0.4c0.5,0,1,0.2,1.4,0.6c0.4,0.4,0.7,0.9,0.7,1.5L622.9,448.9z"/>
		<path d="M641.6,449.8l-1.8-0.1c-0.7,0-1.2,0.2-1.5,0.5v22.2c2.5-0.1,3.8-0.2,4-0.2c2.7,0,4.1,0.6,4.1,1.9v0.2    c-0.3,0.7-0.9,1.2-1.7,1.5c-0.8,0.4-1.5,0.6-2.1,0.6c-0.6,0-1.4,0.1-2.4,0.1H638c-1.8,0-2.9-0.4-3.3-1.1c-0.2-0.3-0.3-0.8-0.3-1.3    v-41.8c0-0.8-0.2-2-0.5-3.7c-0.3-1.6-0.5-2.8-0.5-3.7v-0.2c0.8-1.3,1.4-2.2,1.8-2.5l5.3-0.6c0.7,0,1.5,0.2,2.2,0.7    c0.7,0.4,1.1,1,1.1,1.7c0,1.4-1.1,2.1-3.3,2.1l-2.1-0.1c-0.4,0-0.6,0-0.8,0l0.6,11.9c0,1-0.1,2.4-0.2,4.2c-0.1,1.8-0.2,3.2-0.2,4    c0.3,0,0.6-0.1,1.1-0.2c1-0.3,1.8-0.4,2.3-0.4s1,0.2,1.5,0.6c0.4,0.4,0.7,0.9,0.7,1.4s-0.2,1.1-0.5,1.5    C642.6,449.5,642.1,449.8,641.6,449.8z"/>
		<path d="M648.7,475.3c0-1.3,0.5-1.9,1.6-1.9c0.5,0,1.2,0.2,2.1,0.5c0.9,0.4,1.6,0.5,2.3,0.5c0.6,0,1.3-0.4,2.1-1.2    c0.8-0.8,1.3-1.8,1.8-3.1c0.9-2.5,1.3-4.7,1.3-6.7s-0.4-4.2-1.1-6.5c-0.7-2.3-1.6-4.5-2.6-6.5c-1-2-2-4-3.1-6    c-2.4-4.8-3.6-9.2-3.6-13.1c0-3.8,1.2-6.7,3.6-8.8c1.3-1.1,2.8-1.7,4.5-1.7c0.9,0,1.7,0.2,2.5,0.7c0.8,0.5,1.4,1.1,1.7,1.9    l-1.2,1.5c-1.2,0-2.1-0.2-2.8-0.7c-0.9,0.1-1.7,0.5-2.3,1.3c-1.2,1.4-1.8,3.1-1.8,5.1c0,2,0.3,4,0.8,5.9c0.5,1.9,1.2,3.6,1.9,5.2    c0.8,1.5,1.6,3.2,2.5,5c0.9,1.8,1.8,3.5,2.5,5.1c1.8,3.8,2.7,7.9,2.7,12.3c0,3.1-0.8,6.1-2.4,8.9c-0.8,1.4-1.8,2.5-3.1,3.4    c-1.3,0.9-2.8,1.3-4.4,1.3c-1.7,0-3.1-0.3-4.1-0.8C649.2,476.4,648.7,475.9,648.7,475.3z"/>
		<path d="M667.1,475.3c0-1.3,0.5-1.9,1.6-1.9c0.5,0,1.2,0.2,2.1,0.5c0.9,0.4,1.6,0.5,2.3,0.5c0.6,0,1.3-0.4,2.1-1.2    c0.8-0.8,1.3-1.8,1.8-3.1c0.9-2.5,1.3-4.7,1.3-6.7s-0.4-4.2-1.1-6.5c-0.7-2.3-1.6-4.5-2.6-6.5s-2-4-3.1-6    c-2.4-4.8-3.6-9.2-3.6-13.1c0-3.8,1.2-6.7,3.6-8.8c1.3-1.1,2.8-1.7,4.5-1.7c0.9,0,1.7,0.2,2.5,0.7c0.8,0.5,1.4,1.1,1.7,1.9    l-1.2,1.5c-1.2,0-2.1-0.2-2.8-0.7c-0.9,0.1-1.7,0.5-2.3,1.3c-1.2,1.4-1.8,3.1-1.8,5.1c0,2,0.3,4,0.8,5.9c0.5,1.9,1.2,3.6,1.9,5.2    c0.8,1.5,1.6,3.2,2.5,5c0.9,1.8,1.8,3.5,2.5,5.1c1.8,3.8,2.7,7.9,2.7,12.3c0,3.1-0.8,6.1-2.4,8.9c-0.8,1.4-1.8,2.5-3.1,3.4    c-1.3,0.9-2.8,1.3-4.4,1.3c-1.7,0-3.1-0.3-4.1-0.8S667.1,475.9,667.1,475.3z"/>
		<path d="M695.2,459.8l-0.2-27.9c0-3.1,0-6.2,0.1-9.3l2-1.1c1.4,0.1,3.1,3.9,4.9,11.5c1.5,6.2,2.7,11.7,3.6,16.6    c0.9,4.9,1.4,7.6,1.5,8c0.3-1.5,0.9-4.3,1.8-8.3c0.9-4,1.6-7.1,2-9.3c1.3-6.4,2.1-12.2,2.4-17.2v-0.4c0.1-0.6,0.4-1.1,0.9-1.5    c0.5-0.4,1-0.6,1.5-0.6c0.5,0,1,0.2,1.3,0.6c0.3,0.4,0.5,0.8,0.5,1.2c0,5.7,0.2,14.3,0.7,25.8c0.4,11.5,0.7,20.1,0.7,25.8    c0,1.1-0.3,2.1-0.9,3c-0.6,0.8-1.2,1.3-1.8,1.3c-1.2,0-1.8-0.9-1.8-2.8l-0.3-30.3v-3.7c-0.3,1.9-1.1,5.1-2.2,9.7    c-1.1,4.6-1.9,8.2-2.2,10.6v0.5c0,0.2-0.1,0.6-0.2,1.3c-0.1,0.7-0.2,1.3-0.3,1.7c-0.1,0.5-0.3,1-0.5,1.5c-0.4,1.1-1.2,1.7-2.2,1.7    c-1.7,0-2.6-2.2-2.6-6.7c0-4.4-1.1-10.6-3.2-18.6c-1.1-4-1.8-6.7-2.1-8.1c-0.1,3.8-0.1,6.7-0.1,8.7l0.6,29.6c0,1-0.4,1.9-1.1,2.7    c-1.2,0-2.1-0.4-2.5-1.2c-0.4-0.8-0.7-1.9-0.7-3.2L695.2,459.8z"/>
		<path d="M741.7,454.4l-0.6,9.1v0.3c-0.3,1.3-0.5,2.8-0.5,4.3c0,1.5-0.3,3-0.8,4.5c-0.5,1.4-1.4,2.7-2.5,3.8    c-1.1,1.1-2.3,1.7-3.6,1.7s-2.5-0.4-3.6-1.3c-1.1-0.9-2-2-2.7-3.4c-0.7-1.4-1.3-3.1-1.9-5c-0.5-1.9-1-3.8-1.2-5.7    c-0.3-1.8-0.5-3.8-0.7-5.8c-0.3-3.1-0.4-5.5-0.4-7.3c0-1.7,0-3.2,0-4.4c0-1.2,0-2.3-0.1-3.3c0-0.5,0-1,0-1.6c0-0.6,0-1.2,0-1.9    c0-1.4,0.1-2.6,0.1-3.7c0.1-1.1,0.2-2.3,0.3-3.6c0.2-1.3,0.3-2.4,0.6-3.4c0.2-1,0.6-1.9,0.9-2.9c0.4-1,0.9-1.7,1.4-2.4    c1.2-1.4,2.5-2,4-2c1.5,0,2.8,0.3,3.9,0.8c1.1,0.6,2,1.4,2.7,2.7c0.7,1.2,1.4,2.4,1.9,3.6s1,2.7,1.3,4.8c0.3,2.1,0.6,3.7,0.8,5    c0.2,1.3,0.3,3.1,0.4,5.5c0.1,3.2,0.1,5.7,0.1,7.5V454.4z M735.3,428.1c-0.5-1.2-1.1-2.2-1.8-2.8c-0.7-0.7-1.4-1-2.1-1    s-1.3,0.2-1.7,0.7c-0.5,0.5-0.8,1.2-1.2,2.1c-0.3,0.9-0.6,1.9-0.8,2.9c-0.2,1-0.4,2.2-0.6,3.6c-0.1,1.3-0.2,2.6-0.3,3.7    c-0.1,1.1-0.1,2.3-0.2,3.6c0,2.2-0.1,3.9-0.1,5.1v0.3c0,3.2,0.2,6.7,0.7,10.4c0.5,3.7,1,6.8,1.5,9.1c0.5,2.4,1.2,4.4,2.1,6    c0.9,1.7,1.9,2.5,3,2.5c1,0,1.8-0.9,2.4-2.7c0.7-1.8,1.1-4.1,1.4-6.8c0.5-4.8,0.7-8.1,0.7-10.1c0-1.9,0-3.3,0-4.2    c0-0.9,0-2.2-0.1-3.9s-0.2-3.3-0.3-4.8c-0.1-1.5-0.3-3.1-0.5-4.9c-0.2-1.8-0.5-3.4-0.9-4.8C736.2,430.6,735.8,429.3,735.3,428.1z"/>
		<path d="M745.9,436.9l0.1-11.2c-0.4-0.4-0.5-0.9-0.5-1.5c0-0.6,0.2-1.1,0.6-1.5c0.4-0.4,0.9-0.7,1.5-0.7c1.7,0,2.6,1.7,2.6,5.1    l0.7,25c0.3,0.6,0.5,1.9,0.7,3.8c0.2,1.9,0.3,3.4,0.3,4.5s0.2,2.4,0.5,3.9c0.3,1.6,0.8,3.1,1.4,4.7c0.6,1.6,1.4,3,2.4,4.1    c1,1.1,2,1.7,2.9,1.7c0.9,0,1.6-0.2,2-0.7c0.4-0.4,0.8-1,0.9-1.8c0.3-1.3,0.4-2.6,0.4-4v-14.1c0-1.5-0.2-3.8-0.5-6.8    c-0.3-3-0.5-5.3-0.5-6.8v-0.5l-0.1-4.2l-0.5-12.3c0-0.6,0.3-1.1,0.9-1.4c0.6-0.4,1.2-0.5,1.8-0.5l1.8,1.7v1.2l-0.5,4.4    c0,4,0.2,10,0.7,18.1c0.4,8.1,0.7,13.5,0.7,16.4c0,2.8,0,4.7-0.1,5.7c-0.1,0.9-0.3,2-0.5,3c-0.3,1.1-0.7,2-1.2,2.7    c-1.1,1.6-2.9,2.5-5.3,2.5c-2.9,0-5.3-1.3-7.1-3.8c-1.9-2.7-3.2-6-3.9-9.8c-0.9-4.5-1.4-8.4-1.6-11.8    C746.1,447,745.9,441.9,745.9,436.9z"/>
		<path d="M770,475.3c0-1.3,0.5-1.9,1.6-1.9c0.5,0,1.2,0.2,2.1,0.5c0.9,0.4,1.6,0.5,2.3,0.5c0.6,0,1.3-0.4,2.1-1.2    c0.8-0.8,1.3-1.8,1.8-3.1c0.9-2.5,1.3-4.7,1.3-6.7s-0.4-4.2-1.1-6.5c-0.7-2.3-1.6-4.5-2.6-6.5s-2-4-3.1-6    c-2.4-4.8-3.6-9.2-3.6-13.1c0-3.8,1.2-6.7,3.6-8.8c1.3-1.1,2.8-1.7,4.5-1.7c0.9,0,1.7,0.2,2.5,0.7c0.8,0.5,1.4,1.1,1.7,1.9    l-1.2,1.5c-1.2,0-2.1-0.2-2.8-0.7c-0.9,0.1-1.7,0.5-2.3,1.3c-1.2,1.4-1.8,3.1-1.8,5.1c0,2,0.3,4,0.8,5.9c0.5,1.9,1.2,3.6,1.9,5.2    c0.8,1.5,1.6,3.2,2.5,5c0.9,1.8,1.8,3.5,2.5,5.1c1.8,3.8,2.7,7.9,2.7,12.3c0,3.1-0.8,6.1-2.4,8.9c-0.8,1.4-1.8,2.5-3.1,3.4    c-1.3,0.9-2.8,1.3-4.4,1.3c-1.7,0-3.1-0.3-4.1-0.8S770,475.9,770,475.3z"/>
		<path d="M797.4,449.8l-1.8-0.1c-0.7,0-1.2,0.2-1.5,0.5v22.2c2.5-0.1,3.8-0.2,4-0.2c2.7,0,4.1,0.6,4.1,1.9v0.2    c-0.3,0.7-0.9,1.2-1.7,1.5c-0.8,0.4-1.5,0.6-2.1,0.6c-0.6,0-1.4,0.1-2.4,0.1h-2.2c-1.8,0-2.9-0.4-3.3-1.1    c-0.2-0.3-0.3-0.8-0.3-1.3v-41.8c0-0.8-0.2-2-0.5-3.7c-0.3-1.6-0.5-2.8-0.5-3.7v-0.2c0.8-1.3,1.4-2.2,1.8-2.5l5.3-0.6    c0.7,0,1.5,0.2,2.2,0.7c0.7,0.4,1.1,1,1.1,1.7c0,1.4-1.1,2.1-3.3,2.1l-2.1-0.1c-0.4,0-0.6,0-0.8,0l0.6,11.9c0,1-0.1,2.4-0.2,4.2    c-0.1,1.8-0.2,3.2-0.2,4c0.3,0,0.6-0.1,1.1-0.2c1-0.3,1.8-0.4,2.3-0.4s1,0.2,1.5,0.6c0.4,0.4,0.7,0.9,0.7,1.4s-0.2,1.1-0.5,1.5    C798.4,449.5,797.9,449.8,797.4,449.8z"/>
	</g>
	<g>
		<path d="M197.2,448.9l0.1,2.3v0.3c0.2,4.2,0.3,10.4,0.3,18.8v1.8h5.5c1,0.7,1.5,1.4,1.5,2s-0.2,1.2-0.5,1.6    c-0.4,0.4-0.7,0.6-1.1,0.6s-0.8-0.1-1.3-0.2c-0.4,0.1-0.9,0.1-1.4,0.1l-2.3-0.1c-0.5,0.6-1.1,0.9-1.8,0.9c-0.7,0-1.4-0.2-1.9-0.7    c-0.5-0.5-0.8-1-0.8-1.6l0.5-3.2c0-5.5-0.2-13.6-0.7-24.6c-0.5-10.9-0.7-19.1-0.7-24.6c0-0.4,0.2-0.8,0.5-1.1    c0.4-0.3,0.8-0.4,1.3-0.4c0.5,0,1,0.2,1.4,0.6c0.4,0.4,0.7,0.9,0.7,1.5L197.2,448.9z"/>
		<path d="M215.9,449.8l-1.8-0.1c-0.7,0-1.2,0.2-1.5,0.5v22.2c2.5-0.1,3.8-0.2,4-0.2c2.7,0,4.1,0.6,4.1,1.9v0.2    c-0.3,0.7-0.9,1.2-1.7,1.5c-0.8,0.4-1.5,0.6-2.1,0.6c-0.6,0-1.4,0.1-2.4,0.1h-2.2c-1.8,0-2.9-0.4-3.3-1.1    c-0.2-0.3-0.3-0.8-0.3-1.3v-41.8c0-0.8-0.2-2-0.5-3.7c-0.3-1.6-0.5-2.8-0.5-3.7v-0.2c0.8-1.3,1.4-2.2,1.8-2.5l5.3-0.6    c0.7,0,1.5,0.2,2.2,0.7c0.7,0.4,1.1,1,1.1,1.7c0,1.4-1.1,2.1-3.3,2.1l-2.1-0.1c-0.4,0-0.6,0-0.8,0l0.6,11.9c0,1-0.1,2.4-0.2,4.2    c-0.1,1.8-0.2,3.2-0.2,4c0.3,0,0.6-0.1,1.1-0.2c1-0.3,1.8-0.4,2.3-0.4c0.6,0,1,0.2,1.5,0.6c0.4,0.4,0.7,0.9,0.7,1.4    s-0.2,1.1-0.5,1.5C216.9,449.5,216.5,449.8,215.9,449.8z"/>
		<path d="M229.8,472.8l-0.2,0.5c0.1,0.3,0.1,0.7,0.1,1.1c0,0.5-0.2,0.9-0.7,1.2s-1,0.6-1.8,0.6c-1.4,0-2.1-1.5-2.1-4.6    c0-4.6-0.2-13.2-0.7-25.9c-0.5-12.7-1-19.4-1.5-20.2c0-2.5,1.7-3.8,5.1-4c0.5,0,1.2,0,2.1,0c0.9,0,1.6,0.2,2.1,0.5    c0.5,0.3,0.8,1,0.8,2s-0.7,1.5-2,1.5l-1.8-0.1c-1.3,0-2,0.3-2,0.8c0,2.2,0.2,5.5,0.5,9.8c0.4,4.3,0.5,7.5,0.6,9.5    c0.3,0,0.7-0.1,1.2-0.3c1.2-0.3,2.1-0.5,2.7-0.5c0.6,0,1.1,0.2,1.5,0.7s0.6,1,0.6,1.5c0,1.6-2,2.4-6,2.4c0,2.6,0.2,6.5,0.7,11.7    C229.5,466.3,229.8,470.2,229.8,472.8z"/>
		<path d="M246.7,434.3l-0.1,9.3l0.6,16.6l0.6,12.9c0,2.3-0.7,3.5-2.1,3.5c-0.8,0-1.4-0.4-1.8-1.1s-0.6-1.6-0.6-2.5l0.6-11.5    c0-2.5-0.2-6.2-0.5-11.2c-0.3-5-0.5-8.7-0.5-11.2l0.1-6.3c0-3.4-0.2-5.7-0.7-6.7l-3.9,0.4c-0.6,0-1.2-0.2-1.6-0.5    c-0.5-0.4-0.7-0.8-0.7-1.4c0-0.6,0.6-1.1,1.7-1.5c1.2-0.4,2.6-0.7,4.2-0.9c2.9-0.3,5.3-0.5,7.3-0.5c0.6,0,1.1,0.2,1.6,0.6    c0.5,0.4,0.7,0.9,0.7,1.5c0,0.6-0.2,1-0.6,1.4c-0.4,0.3-0.9,0.5-1.5,0.5l-2.6-0.1c-0.3,0-0.6,0-0.7,0    C246.5,428.2,246.7,431.2,246.7,434.3z"/>
		<path d="M267.1,441l-0.6,5v1.7c0,5.6,0.1,9.3,0.4,11.1c0.2,1.8,0.5,3.4,0.8,4.9c0.3,1.4,0.6,2.6,1,3.7c0.4,1,0.9,2,1.5,2.8    c1.1,1.8,2.7,2.7,4.7,2.7c0.8,0,1.8-0.4,3.1-1.3c1.2-0.9,2.1-1.3,2.8-1.3c0.6,0,1.3,0.4,2,1.1c0,2.4-1.4,4.1-4.1,5.2    c-1.4,0.5-2.8,0.7-4.4,0.7c-1.6,0-3-0.3-4.1-1c-1.1-0.6-2.1-1.5-2.8-2.5c-0.8-1-1.4-2.3-2-3.9c-0.6-1.6-1-3.2-1.3-4.7    c-0.3-1.6-0.5-3.4-0.7-5.5c-0.3-3.5-0.4-7.3-0.5-11.4l0.1-8.6c0-2.7,0.2-5,0.5-6.6c-0.1-0.8-0.2-1.5-0.2-2.2c0-3,1.1-5.3,3.3-7    c2.2-1.7,4.9-2.6,8.2-2.6c1.1,0,2.3,0.3,3.4,1c1.1,0.6,1.7,1.5,1.7,2.5c0,0.5-0.2,0.9-0.6,1.2c-0.4,0.3-1.1,0.4-2,0.4    c-0.9,0-1.6-0.3-2-0.9v0h-1v-0.2c-2.8,0-4.7,0.9-5.7,2.6c-0.9,1.6-1.4,4.3-1.4,8.2L267.1,441z"/>
		<path d="M290.4,448.9l0.1,2.3v0.3c0.2,4.2,0.3,10.4,0.3,18.8v1.8h5.5c1,0.7,1.5,1.4,1.5,2s-0.2,1.2-0.5,1.6    c-0.4,0.4-0.7,0.6-1.1,0.6s-0.8-0.1-1.3-0.2c-0.4,0.1-0.9,0.1-1.4,0.1l-2.3-0.1c-0.5,0.6-1.1,0.9-1.8,0.9c-0.7,0-1.4-0.2-1.9-0.7    c-0.5-0.5-0.8-1-0.8-1.6l0.5-3.2c0-5.5-0.2-13.6-0.7-24.6c-0.5-10.9-0.7-19.1-0.7-24.6c0-0.4,0.2-0.8,0.5-1.1    c0.4-0.3,0.8-0.4,1.3-0.4c0.5,0,1,0.2,1.4,0.6c0.4,0.4,0.7,0.9,0.7,1.5L290.4,448.9z"/>
		<path d="M309.4,425.4l-1.3,0c-0.5,0-0.8,0.1-1,0.3c-0.2,0.2-0.3,0.6-0.3,1.2c0,4.7,0.3,11.7,0.9,21.1c0.6,9.4,0.9,16.4,0.9,21.1    v2.8c0.5-0.1,1-0.1,1.5-0.1c2,0,3,0.8,3,2.5v0.4l-1.8,1.2l-4.9,0.2c-4.1,0-6.2-0.7-6.2-2.1c0-1.1,0.7-1.7,2.2-1.7l1.5,0.1    c0.7,0,1.1-0.6,1.1-1.7c0-3.7-0.2-9.3-0.7-16.6c-0.4-7.4-0.7-12.9-0.7-16.6l0.1-7.3c0-1.5-0.1-2.9-0.2-4c-0.6,0.2-1.2,0.3-1.7,0.3    c-1.1,0-1.7-0.6-1.7-1.7c0-0.6,0.4-1.1,1.1-1.5c0.7-0.4,1.6-0.7,2.7-0.9c2-0.4,3.5-0.5,4.5-0.5c1,0,1.7,0.2,2.1,0.6    c0.4,0.4,0.6,0.8,0.6,1.4c0,0.5-0.2,1-0.5,1.4S309.9,425.4,309.4,425.4z"/>
		<path d="M320.2,441l-0.6,5v1.7c0,5.6,0.1,9.3,0.4,11.1c0.2,1.8,0.5,3.4,0.8,4.9c0.3,1.4,0.6,2.6,1,3.7c0.4,1,0.9,2,1.5,2.8    c1.1,1.8,2.7,2.7,4.7,2.7c0.8,0,1.8-0.4,3.1-1.3c1.2-0.9,2.1-1.3,2.8-1.3c0.6,0,1.3,0.4,2,1.1c0,2.4-1.4,4.1-4.1,5.2    c-1.4,0.5-2.8,0.7-4.4,0.7c-1.6,0-3-0.3-4.1-1c-1.1-0.6-2.1-1.5-2.8-2.5c-0.8-1-1.4-2.3-2-3.9c-0.6-1.6-1-3.2-1.3-4.7    c-0.3-1.6-0.5-3.4-0.7-5.5c-0.3-3.5-0.4-7.3-0.5-11.4l0.1-8.6c0-2.7,0.2-5,0.5-6.6c-0.1-0.8-0.2-1.5-0.2-2.2c0-3,1.1-5.3,3.3-7    c2.2-1.7,4.9-2.6,8.2-2.6c1.1,0,2.3,0.3,3.4,1c1.1,0.6,1.7,1.5,1.7,2.5c0,0.5-0.2,0.9-0.6,1.2c-0.4,0.3-1.1,0.4-2,0.4    c-0.9,0-1.6-0.3-2-0.9v0h-1v-0.2c-2.8,0-4.7,0.9-5.7,2.6c-0.9,1.6-1.4,4.3-1.4,8.2L320.2,441z"/>
		<path d="M340.3,452.9l0.1-13.7c0-2.4-0.2-5.2-0.5-8.3c-0.4-3.1-0.5-5.2-0.5-6.2c0-1,0.2-1.7,0.6-2.1c0.4-0.5,0.9-0.7,1.5-0.7    c1.8,0,2.7,1.9,2.7,5.8c0,0-0.1,5-0.3,14.8c0.2-0.4,0.6-1.6,1.4-3.5c0.8-1.9,1.5-3.9,2.3-5.9c0.8-1.9,1.7-4,2.6-6.1    c2.1-4.7,3.6-7.1,4.5-7.1c0.5,0,1,0.2,1.4,0.5c0.4,0.4,0.6,0.8,0.6,1.3c0,0.5-1.3,3.5-3.9,9c-2.6,5.5-4.1,9-4.4,10.4v1.3    c0.7,1.8,2.6,7.6,5.7,17.5s4.7,15.1,4.7,15.7c0,0.6-0.2,1.1-0.7,1.5c-0.5,0.4-1,0.6-1.6,0.6l-1.7-0.3c-1.2-6.8-2.4-12.8-3.7-17.8    c-1.3-5.1-3-9.9-5.1-14.5c-1.4,2.6-2.2,4.1-2.2,4.6c-0.1,1.5-0.2,2.6-0.2,3.4l0.5,13.4v5.9c0,2.6-0.8,3.8-2.5,3.8    c-1.4,0-2.1-1.2-2.1-3.6c0-2.4,0.2-5.8,0.5-10.1S340.3,455.1,340.3,452.9z"/>
	</g>
	<g>
		<path d="M980.6,474l0.3-42.2v-8.9c0-0.6,0.1-1,0.4-1.2c0.2-0.2,0.8-0.4,1.8-0.4c1,0,2,0.2,3,0.7c1,0.5,1.9,1.1,2.6,1.9    c0.7,0.8,1.3,1.8,1.8,2.8c0.9,2,1.4,4.2,1.4,6.5c0,2.3-0.6,5-1.8,8.1c-0.1,0.3-0.4,1-0.8,2.1c-0.4,1.1-0.7,1.7-0.7,1.9    c0,3.6,0.9,8.2,2.7,13.9c0.6,1.9,1.5,4.6,2.6,7.9c1.1,3.3,1.8,5.5,2.1,6.3v0.2c0,1.6-0.2,2.6-0.6,2.8c-0.4,0.3-0.8,0.4-1.2,0.4    c-0.9,0-1.8-0.6-2.6-1.9v-0.2c-0.2-4.4-1.7-11-4.5-19.8c-1.3-4-2.1-7-2.6-9v28.4c0,0.7-0.1,1.3-0.4,1.7c-0.3,0.4-0.7,0.6-1.4,0.6    c-0.7,0-1.2-0.2-1.5-0.6c-0.3-0.4-0.5-0.9-0.5-1.4V474z M984.6,424.7l-0.4,14.7c0,1.5,0,2.6,0.1,3.3c0.8-0.8,1.6-1.7,2.4-2.8    l1.1-6.2c0.1-0.3,0.1-0.7,0.1-1.1c0-1.1-0.2-2.5-0.7-4.2C986.5,426.1,985.7,424.9,984.6,424.7z"/>
		<path d="M1007.7,425.4l-1.3,0c-0.5,0-0.8,0.1-1,0.3c-0.2,0.2-0.3,0.6-0.3,1.2c0,4.7,0.3,11.7,0.9,21.1c0.6,9.4,0.9,16.4,0.9,21.1    v2.8c0.5-0.1,1-0.1,1.5-0.1c2,0,3,0.8,3,2.5v0.4l-1.8,1.2l-4.9,0.2c-4.1,0-6.2-0.7-6.2-2.1c0-1.1,0.7-1.7,2.2-1.7l1.5,0.1    c0.7,0,1.1-0.6,1.1-1.7c0-3.7-0.2-9.3-0.7-16.6s-0.7-12.9-0.7-16.6l0.1-7.3c0-1.5-0.1-2.9-0.2-4c-0.6,0.2-1.2,0.3-1.7,0.3    c-1.1,0-1.7-0.6-1.7-1.7c0-0.6,0.4-1.1,1.1-1.5c0.7-0.4,1.6-0.7,2.7-0.9c2-0.4,3.5-0.5,4.5-0.5c1,0,1.7,0.2,2.1,0.6    c0.4,0.4,0.6,0.8,0.6,1.4c0,0.5-0.2,1-0.5,1.4S1008.2,425.4,1007.7,425.4z"/>
		<path d="M1030.8,463.1l-2.8,0.3c-1.6,0-2.5-0.7-2.5-2c0-1.2,1.5-1.9,4.6-2.3c0.6-0.1,1.3-0.1,2-0.1s1.3,0.4,1.9,1.1s0.8,1.8,0.8,3    c0,1.3,0.2,3.3,0.7,6.1c0.5,2.8,0.7,4.7,0.7,5.7c0,1.8-0.6,2.6-1.8,2.6s-2-0.5-2.4-1.5V476c-0.3,0.1-0.8,0.4-1.6,0.8    c-1.5,0.8-2.9,1.2-4.3,1.2c-1,0-2.1-0.2-3.1-0.6c-2.2-0.9-3.9-2.3-5.1-4.4c-1.3-2.2-2.1-4.3-2.5-6.3c-0.4-2-0.7-3.6-0.8-4.7    c-0.2-1.2-0.3-2.5-0.4-4c-0.1-1.9-0.2-4.2-0.2-6.9l0-5.3c0-4.6,0.2-8,0.5-10s0.6-3.7,0.9-5s0.7-2.4,1.1-3.4c0.4-1,0.9-2,1.5-2.9    c0.6-1,1.3-1.7,2.1-2.4c1.7-1.4,3.7-2,5.9-2c2.2,0,3.3,0.7,3.3,2.1c0,0.5-0.2,0.9-0.6,1.2s-0.8,0.5-1.3,0.5l-2.1-0.4    c-1.8,0-3.2,1.1-4.3,3.3c-1.1,2.4-1.8,4.6-2.1,6.8s-0.5,3.9-0.7,5.2c-0.2,1.3-0.3,2.8-0.4,4.4c-0.1,2.3-0.1,4.5-0.1,6.8l0,4.5    c0,4.6,0.2,7.9,0.6,9.8c0.4,1.9,0.8,3.5,1.3,4.6c0.4,1.2,0.9,2.1,1.5,2.9c2,1.5,3.7,2.4,5.2,2.6c2.1,0,3.9-1,5.3-3    C1031.9,467.1,1031.5,464.3,1030.8,463.1z"/>
		<path d="M1053.3,477.2c-1.2,0-1.8-0.8-1.8-2.4c0-9.1-0.2-17.6-0.6-25.4c-1.3-0.2-2.5-0.4-3.6-0.4s-2.1,0.2-3,0.6    c0,2.7,0.2,6.7,0.6,12.1c0.4,5.4,0.6,9.5,0.6,12.3c0,0.5-0.1,0.9-0.4,1.3c-0.3,0.4-0.7,0.6-1.1,0.6c-1.3,0-2.3-4.1-2.9-12.3    c-0.8-11.2-1.2-24.7-1.2-40.6c0-0.9,0.4-1.3,1.2-1.3c0.4,0,0.9,0.1,1.4,0.4c0.5,0.2,0.9,0.5,1.1,0.8c-0.2,1.7-0.2,3.5-0.2,5.4    l0.5,14.8l-0.1,2.7c0,0.7,0,1.3,0.1,1.9l7-0.5l-0.3-23.6v-1.9c1.8,0,2.9,0.8,3.3,2.5c0.2,0.8,0.2,2.8,0.2,6.1s0.2,10.2,0.7,20.7    c0.5,10.6,0.7,18.5,0.7,23.7c0,0.6-0.2,1.2-0.6,1.8C1054.4,476.9,1053.9,477.2,1053.3,477.2z"/>
		<path d="M1068.8,434.3l-0.1,9.3l0.6,16.6l0.6,12.9c0,2.3-0.7,3.5-2.1,3.5c-0.8,0-1.4-0.4-1.8-1.1s-0.6-1.6-0.6-2.5l0.6-11.5    c0-2.5-0.2-6.2-0.5-11.2c-0.3-5-0.5-8.7-0.5-11.2l0.1-6.3c0-3.4-0.2-5.7-0.7-6.7l-3.9,0.4c-0.6,0-1.2-0.2-1.6-0.5    c-0.5-0.4-0.7-0.8-0.7-1.4c0-0.6,0.6-1.1,1.7-1.5c1.2-0.4,2.6-0.7,4.2-0.9c2.9-0.3,5.3-0.5,7.3-0.5c0.6,0,1.1,0.2,1.6,0.6    c0.5,0.4,0.7,0.9,0.7,1.5c0,0.6-0.2,1-0.6,1.4c-0.4,0.3-0.9,0.5-1.5,0.5l-2.6-0.1c-0.3,0-0.6,0-0.7,0    C1068.7,428.2,1068.8,431.2,1068.8,434.3z"/>
		<path d="M1089.2,441l-0.6,5v1.7c0,5.6,0.1,9.3,0.4,11.1c0.2,1.8,0.5,3.4,0.8,4.9c0.3,1.4,0.6,2.6,1,3.7s0.9,2,1.5,2.8    c1.1,1.8,2.7,2.7,4.7,2.7c0.8,0,1.8-0.4,3.1-1.3c1.2-0.9,2.1-1.3,2.8-1.3s1.3,0.4,2,1.1c0,2.4-1.4,4.1-4.1,5.2    c-1.4,0.5-2.8,0.7-4.4,0.7s-3-0.3-4.1-1c-1.1-0.6-2.1-1.5-2.8-2.5c-0.8-1-1.4-2.3-2-3.9c-0.6-1.6-1-3.2-1.3-4.7    c-0.3-1.6-0.5-3.4-0.7-5.5c-0.3-3.5-0.4-7.3-0.5-11.4l0.1-8.6c0-2.7,0.2-5,0.5-6.6c-0.1-0.8-0.2-1.5-0.2-2.2c0-3,1.1-5.3,3.3-7    s4.9-2.6,8.2-2.6c1.1,0,2.3,0.3,3.4,1c1.1,0.6,1.7,1.5,1.7,2.5c0,0.5-0.2,0.9-0.6,1.2c-0.4,0.3-1.1,0.4-2,0.4    c-0.9,0-1.6-0.3-2-0.9v0h-1v-0.2c-2.8,0-4.7,0.9-5.7,2.6c-0.9,1.6-1.4,4.3-1.4,8.2L1089.2,441z"/>
		<path d="M1112.6,448.9l0.1,2.3v0.3c0.2,4.2,0.3,10.4,0.3,18.8v1.8h5.5c1,0.7,1.5,1.4,1.5,2s-0.2,1.2-0.5,1.6    c-0.4,0.4-0.7,0.6-1.1,0.6s-0.8-0.1-1.3-0.2c-0.4,0.1-0.9,0.1-1.4,0.1l-2.3-0.1c-0.5,0.6-1.1,0.9-1.8,0.9c-0.7,0-1.4-0.2-1.9-0.7    c-0.5-0.5-0.8-1-0.8-1.6l0.5-3.2c0-5.5-0.2-13.6-0.7-24.6c-0.5-10.9-0.7-19.1-0.7-24.6c0-0.4,0.2-0.8,0.5-1.1    c0.4-0.3,0.8-0.4,1.3-0.4c0.5,0,1,0.2,1.4,0.6c0.4,0.4,0.7,0.9,0.7,1.5L1112.6,448.9z"/>
		<path d="M1131.6,425.4l-1.3,0c-0.5,0-0.8,0.1-1,0.3c-0.2,0.2-0.3,0.6-0.3,1.2c0,4.7,0.3,11.7,0.9,21.1c0.6,9.4,0.9,16.4,0.9,21.1    v2.8c0.5-0.1,1-0.1,1.5-0.1c2,0,3,0.8,3,2.5v0.4l-1.8,1.2l-4.9,0.2c-4.1,0-6.2-0.7-6.2-2.1c0-1.1,0.7-1.7,2.2-1.7l1.5,0.1    c0.7,0,1.1-0.6,1.1-1.7c0-3.7-0.2-9.3-0.7-16.6s-0.7-12.9-0.7-16.6l0.1-7.3c0-1.5-0.1-2.9-0.2-4c-0.6,0.2-1.2,0.3-1.7,0.3    c-1.1,0-1.7-0.6-1.7-1.7c0-0.6,0.4-1.1,1.1-1.5c0.7-0.4,1.6-0.7,2.7-0.9c2-0.4,3.5-0.5,4.5-0.5c1,0,1.7,0.2,2.1,0.6    c0.4,0.4,0.6,0.8,0.6,1.4c0,0.5-0.2,1-0.5,1.4S1132,425.4,1131.6,425.4z"/>
		<path d="M1142.3,441l-0.6,5v1.7c0,5.6,0.1,9.3,0.4,11.1c0.2,1.8,0.5,3.4,0.8,4.9c0.3,1.4,0.6,2.6,1,3.7s0.9,2,1.5,2.8    c1.1,1.8,2.7,2.7,4.7,2.7c0.8,0,1.8-0.4,3.1-1.3c1.2-0.9,2.1-1.3,2.8-1.3s1.3,0.4,2,1.1c0,2.4-1.4,4.1-4.1,5.2    c-1.4,0.5-2.8,0.7-4.4,0.7s-3-0.3-4.1-1c-1.1-0.6-2.1-1.5-2.8-2.5c-0.8-1-1.4-2.3-2-3.9c-0.6-1.6-1-3.2-1.3-4.7    c-0.3-1.6-0.5-3.4-0.7-5.5c-0.3-3.5-0.4-7.3-0.5-11.4l0.1-8.6c0-2.7,0.2-5,0.5-6.6c-0.1-0.8-0.2-1.5-0.2-2.2c0-3,1.1-5.3,3.3-7    s4.9-2.6,8.2-2.6c1.1,0,2.3,0.3,3.4,1c1.1,0.6,1.7,1.5,1.7,2.5c0,0.5-0.2,0.9-0.6,1.2c-0.4,0.3-1.1,0.4-2,0.4    c-0.9,0-1.6-0.3-2-0.9v0h-1v-0.2c-2.8,0-4.7,0.9-5.7,2.6c-0.9,1.6-1.4,4.3-1.4,8.2L1142.3,441z"/>
		<path d="M1162.4,452.9l0.1-13.7c0-2.4-0.2-5.2-0.5-8.3s-0.5-5.2-0.5-6.2c0-1,0.2-1.7,0.6-2.1c0.4-0.5,0.9-0.7,1.5-0.7    c1.8,0,2.7,1.9,2.7,5.8c0,0-0.1,5-0.3,14.8c0.2-0.4,0.6-1.6,1.4-3.5c0.8-1.9,1.5-3.9,2.3-5.9c0.8-1.9,1.7-4,2.6-6.1    c2.1-4.7,3.6-7.1,4.5-7.1c0.5,0,1,0.2,1.4,0.5c0.4,0.4,0.6,0.8,0.6,1.3c0,0.5-1.3,3.5-3.9,9c-2.6,5.5-4.1,9-4.4,10.4v1.3    c0.7,1.8,2.6,7.6,5.7,17.5s4.7,15.1,4.7,15.7c0,0.6-0.2,1.1-0.7,1.5c-0.5,0.4-1,0.6-1.6,0.6l-1.7-0.3c-1.2-6.8-2.4-12.8-3.7-17.8    c-1.3-5.1-3-9.9-5.1-14.5c-1.4,2.6-2.2,4.1-2.2,4.6c-0.1,1.5-0.2,2.6-0.2,3.4l0.5,13.4v5.9c0,2.6-0.8,3.8-2.5,3.8    c-1.4,0-2.1-1.2-2.1-3.6c0-2.4,0.2-5.8,0.5-10.1S1162.4,455.1,1162.4,452.9z"/>
	</g>
	<g>
		<g>
			<g>
				<path d="M656.2,226.7v-74.9h-17.3c-22.3,0-40.3,18.1-40.3,40.3v34.6H656.2z"/>
			</g>
			<g>
				<path d="M668.8,226.7h57.6v-34.6c0-22.3-18.1-40.3-40.3-40.3h-17.3V226.7z"/>
			</g>
			<g>
				<path d="M598.6,239.3v58.5c0,35.3,28.6,63.9,63.9,63.9c35.3,0,63.9-28.6,63.9-63.9v-58.5H598.6z"/>
			</g>
		</g>
		<g>
			<g>
				<path d="M688.4,136.7c-8.8-9.4-17.7-14.1-26.4-13.6c-13.4,0.7-23.1,12.9-23.2,13l-12.9-9.9c0.6-0.7,14.3-18.3,35.3-19.3      c13.6-0.6,26.8,5.6,39,18.7L688.4,136.7z"/>
			</g>
		</g>
		<g>
			<g>
				<path d="M714.9,110.8c-18.5-18.8-37.1-27.6-55.7-26.6c-27.8,1.7-46.6,25.6-46.8,25.9l-12.9-9.9c0.9-1.2,23.3-30,58.5-32.2      c23.3-1.5,46.4,9.1,68.4,31.4L714.9,110.8z"/>
			</g>
		</g>
	</g>
</g>
<g id="Designed_by_Vecteezy">
	<g>
		<g>
			<g>
				<path class="st1" d="M732.3,937.7c0.8,0,1.6,0.7,1.6,0.7L720,968.2c-1.5,0-5.2,0.2-6.1,0.2c-0.8,0-1.6-0.7-1.6-0.7l-4.8-29.8      c2.9,0,6.5-0.2,7.6-0.2c0.8,0,1.6,0.7,1.6,0.7l1.5,14.6c0.1,1.3,0.1,3,0.1,4.8c0.5-2,1-3.9,1.5-5.2l5.8-14.7      C728.1,937.9,731.3,937.7,732.3,937.7L732.3,937.7z"/>
			</g>
			<g>
				<path class="st1" d="M746.6,952.4c0,3.2-1.8,5.4-6.3,6.3l-4.7,1c0.4,2,1.6,3,3.8,3c2.6,0,4.4-2,4.4-2s1.3,0.7,1.3,2.3      c0,2.7-4.1,5.6-9,5.6c-4.9,0-8.1-3.1-8.1-8.3c0-6,4.3-14.2,11.9-14.2C744,946.1,746.6,948.6,746.6,952.4L746.6,952.4z       M738.6,955.5c1-0.3,1.3-1.2,1.3-2.1c0-0.9-0.3-2.2-1.3-2.2c-1.9,0-2.7,3-3,5.3L738.6,955.5z"/>
			</g>
			<g>
				<path class="st1" d="M759.4,946.1c3.8,0,6.7,2,6.7,4.7c0,3.3-4,4.5-4,4.5s-1.2-3.6-3.9-3.6c-1.8,0-2.9,1.8-2.9,5.8      c0,3.6,1,5.2,3.3,5.2c2.4,0,3.9-1.6,3.9-1.6s1.3,0.7,1.3,2.2c0,2.6-4,5.3-8.6,5.3c-4.9,0-8-3.1-8-8.2      C747.3,954.3,751.7,946.1,759.4,946.1L759.4,946.1z"/>
			</g>
			<g>
				<path class="st1" d="M777.8,941.3c0.9,0,1.5,0.7,1.5,0.7l-0.7,4.5h4.8l-1.1,3.5c-0.4,1.1-0.9,1.7-2,1.7h-2.5l-1.4,8.9      c-0.2,1.4,0.1,2.1,1.1,2.1c0.9,0,1.8-0.5,1.8-0.5s1.3,0.7,1.3,2.2c0,2.2-3.1,4.3-7,4.3c-4.1,0-5.8-2.5-5.1-7l1.6-9.9h-2.6      l1.1-3.6c0.3-0.9,1.1-1.6,2-1.6h1.3l1.5-4.2C775.2,941.9,777,941.3,777.8,941.3L777.8,941.3z"/>
			</g>
			<g>
				<path class="st1" d="M801.2,952.4c0,3.2-1.8,5.4-6.3,6.3l-4.7,1c0.4,2,1.6,3,3.8,3c2.6,0,4.4-2,4.4-2s1.3,0.7,1.3,2.3      c0,2.7-4.1,5.6-9,5.6c-4.9,0-8.1-3.1-8.1-8.3c0-6,4.3-14.2,11.9-14.2C798.6,946.1,801.2,948.6,801.2,952.4L801.2,952.4z       M793.2,955.5c1-0.3,1.3-1.2,1.3-2.1c0-0.9-0.3-2.2-1.3-2.2c-1.9,0-2.7,3-3,5.3L793.2,955.5z"/>
			</g>
			<g>
				<path class="st1" d="M820.5,952.4c0,3.2-1.8,5.4-6.3,6.3l-4.7,1c0.4,2,1.6,3,3.8,3c2.6,0,4.4-2,4.4-2s1.3,0.7,1.3,2.3      c0,2.7-4.1,5.6-9,5.6c-4.9,0-8.1-3.1-8.1-8.3c0-6,4.3-14.2,11.9-14.2C817.9,946.1,820.5,948.6,820.5,952.4L820.5,952.4z       M812.5,955.5c1-0.3,1.3-1.2,1.3-2.1c0-0.9-0.3-2.2-1.3-2.2c-1.9,0-2.7,3-3,5.3L812.5,955.5z"/>
			</g>
			<g>
				<path class="st1" d="M836.3,960.5c0,0,1.6,1.5,1.6,4c0,3.3-2.8,4.2-5.2,4.2c-3.1,0-5.3-1.5-7.6-2.3c-0.6,0.7-1.3,1.5-1.9,2.3      c0,0-3.5-0.1-3.5-2.4c0-2.9,4.8-7.8,9.9-13.4c-0.6-0.1-1.2-0.2-1.7-0.2c-2.9,0-4.1,1.5-4.1,1.5s-1.5-1.7-1.4-4      c0.2-3.1,3.1-4,5.5-4c2.5,0,4.3,1,6.1,1.7l1.5-1.7c0,0,3.5,0.1,3.5,2.5c0,2.8-4.6,7.6-9.6,13c1.1,0.3,2,0.5,3,0.5      C835.1,962.2,836.3,960.5,836.3,960.5L836.3,960.5z"/>
			</g>
			<g>
				<path class="st1" d="M858.7,966.7c-1.2,7.6-6.4,11.4-13,11.4c-4.2,0-7.3-2.2-7.3-4.8c0-1.7,1.4-2.5,1.4-2.5s1.4,1.3,4.2,1.3      c2.6,0,6.2-1.1,6.8-5.1l0.5-3.1c-1.8,2.6-4.1,4.6-7.1,4.6c-3.3,0-4.8-2.7-3.9-8.3l0.9-6c0.6-3.7,0.7-6.7,0.7-6.7      c2.4-0.4,5.5-1.5,6.6-1.5c0.8,0,1.6,0.7,1.6,0.7l-1.2,7.5l-1.1,6.9c-0.1,0.6,0,1,0.6,1c2.8,0,4.3-7.9,4.3-7.9      c0.6-3.7,0.7-6.7,0.7-6.7c2.4-0.4,5.5-1.5,6.6-1.5c0.9,0,1.6,0.7,1.6,0.7l-1.2,7.5L858.7,966.7z"/>
			</g>
		</g>
		<g>
			<path class="st1" d="M538.1,947.4h7.4c1.7,0,3,0.1,3.8,0.4c1.2,0.3,2.2,1,3,1.9c0.8,0.9,1.5,2,1.9,3.3c0.4,1.3,0.7,2.9,0.7,4.8     c0,1.7-0.2,3.1-0.6,4.3c-0.5,1.5-1.2,2.7-2.2,3.6c-0.7,0.7-1.7,1.2-2.9,1.6c-0.9,0.3-2.1,0.4-3.6,0.4h-7.7V947.4z M542.2,950.8     v13.4h3c1.1,0,2-0.1,2.5-0.2c0.7-0.2,1.2-0.4,1.6-0.8c0.4-0.4,0.8-1,1.1-1.9c0.3-0.9,0.4-2.1,0.4-3.7c0-1.6-0.1-2.8-0.4-3.6     c-0.3-0.8-0.7-1.5-1.2-2c-0.5-0.5-1.1-0.8-1.9-0.9c-0.6-0.1-1.7-0.2-3.3-0.2H542.2z"/>
			<path class="st1" d="M566.4,962.9l3.9,0.6c-0.5,1.4-1.3,2.5-2.3,3.2c-1.1,0.7-2.4,1.1-4,1.1c-2.5,0-4.4-0.8-5.6-2.5     c-1-1.3-1.4-3-1.4-5c0-2.4,0.6-4.3,1.9-5.7c1.3-1.4,2.9-2.1,4.8-2.1c2.2,0,3.9,0.7,5.1,2.2c1.3,1.4,1.9,3.6,1.8,6.6h-9.7     c0,1.1,0.3,2,0.9,2.7c0.6,0.6,1.3,1,2.2,1c0.6,0,1.1-0.2,1.5-0.5C565.8,964.1,566.2,963.6,566.4,962.9z M566.6,959     c0-1.1-0.3-2-0.9-2.6c-0.6-0.6-1.2-0.9-2-0.9c-0.8,0-1.5,0.3-2.1,0.9c-0.6,0.6-0.8,1.4-0.8,2.5H566.6z"/>
			<path class="st1" d="M571.6,963.4l3.9-0.6c0.2,0.8,0.5,1.3,1,1.7c0.5,0.4,1.2,0.6,2.1,0.6c1,0,1.8-0.2,2.3-0.6     c0.3-0.3,0.5-0.6,0.5-1c0-0.3-0.1-0.5-0.3-0.7c-0.2-0.2-0.6-0.4-1.3-0.5c-3.1-0.7-5.1-1.3-5.9-1.9c-1.2-0.8-1.7-1.9-1.7-3.3     c0-1.3,0.5-2.3,1.5-3.2c1-0.9,2.6-1.3,4.7-1.3c2,0,3.5,0.3,4.5,1c1,0.7,1.6,1.6,2,2.9l-3.6,0.7c-0.2-0.6-0.5-1-0.9-1.3     c-0.4-0.3-1.1-0.5-1.9-0.5c-1,0-1.7,0.1-2.2,0.4c-0.3,0.2-0.4,0.5-0.4,0.8c0,0.3,0.1,0.5,0.4,0.7c0.3,0.3,1.6,0.6,3.6,1.1     c2.1,0.5,3.5,1,4.3,1.7c0.8,0.7,1.2,1.6,1.2,2.9c0,1.3-0.6,2.5-1.7,3.5c-1.1,1-2.8,1.4-5,1.4c-2,0-3.6-0.4-4.7-1.2     C572.8,965.8,572,964.7,571.6,963.4z"/>
			<path class="st1" d="M588.1,950.9v-3.6h3.9v3.6H588.1z M588.1,967.5v-14.6h3.9v14.6H588.1z"/>
			<path class="st1" d="M595,968.5l4.4,0.5c0.1,0.5,0.2,0.9,0.5,1.1c0.4,0.3,0.9,0.4,1.7,0.4c1,0,1.8-0.2,2.3-0.5     c0.3-0.2,0.6-0.5,0.8-1c0.1-0.3,0.2-0.9,0.2-1.8v-2.1c-1.2,1.6-2.6,2.4-4.4,2.4c-2,0-3.5-0.8-4.7-2.5c-0.9-1.3-1.3-2.9-1.3-4.9     c0-2.4,0.6-4.3,1.8-5.6c1.2-1.3,2.6-1.9,4.4-1.9c1.8,0,3.3,0.8,4.5,2.4v-2.1h3.6V966c0,1.7-0.1,3-0.4,3.9c-0.3,0.9-0.7,1.5-1.2,2     c-0.5,0.5-1.2,0.9-2.1,1.1c-0.9,0.3-1.9,0.4-3.3,0.4c-2.5,0-4.2-0.4-5.3-1.3s-1.6-1.9-1.6-3.2C595,968.8,595,968.7,595,968.5z      M598.5,959.9c0,1.6,0.3,2.7,0.9,3.4c0.6,0.7,1.3,1.1,2.2,1.1c0.9,0,1.7-0.4,2.4-1.1c0.7-0.7,1-1.8,1-3.3c0-1.5-0.3-2.6-0.9-3.4     c-0.6-0.7-1.4-1.1-2.4-1.1c-0.9,0-1.7,0.4-2.3,1.1C598.8,957.3,598.5,958.4,598.5,959.9z"/>
			<path class="st1" d="M625.3,967.5h-3.9v-7.5c0-1.6-0.1-2.6-0.2-3.1c-0.2-0.5-0.4-0.8-0.8-1.1c-0.4-0.3-0.8-0.4-1.3-0.4     c-0.7,0-1.3,0.2-1.8,0.6c-0.5,0.4-0.9,0.9-1.1,1.5c-0.2,0.6-0.3,1.7-0.3,3.4v6.6H612v-14.6h3.6v2.1c1.3-1.7,2.9-2.5,4.8-2.5     c0.9,0,1.6,0.2,2.3,0.5c0.7,0.3,1.2,0.7,1.6,1.2c0.4,0.5,0.6,1,0.8,1.6c0.1,0.6,0.2,1.5,0.2,2.6V967.5z"/>
			<path class="st1" d="M637.2,962.9l3.9,0.6c-0.5,1.4-1.3,2.5-2.3,3.2c-1.1,0.7-2.4,1.1-4,1.1c-2.5,0-4.4-0.8-5.6-2.5     c-1-1.3-1.4-3-1.4-5c0-2.4,0.6-4.3,1.9-5.7c1.3-1.4,2.9-2.1,4.8-2.1c2.2,0,3.9,0.7,5.1,2.2c1.3,1.4,1.9,3.6,1.8,6.6h-9.7     c0,1.1,0.3,2,0.9,2.7c0.6,0.6,1.3,1,2.2,1c0.6,0,1.1-0.2,1.5-0.5C636.6,964.1,636.9,963.6,637.2,962.9z M637.4,959     c0-1.1-0.3-2-0.9-2.6c-0.6-0.6-1.2-0.9-2-0.9c-0.8,0-1.5,0.3-2.1,0.9c-0.6,0.6-0.8,1.4-0.8,2.5H637.4z"/>
			<path class="st1" d="M657.2,967.5h-3.6v-2.1c-0.6,0.8-1.3,1.5-2.1,1.9c-0.8,0.4-1.6,0.6-2.5,0.6c-1.7,0-3.1-0.7-4.3-2     c-1.2-1.4-1.8-3.2-1.8-5.7c0-2.5,0.6-4.4,1.7-5.7c1.2-1.3,2.6-1.9,4.4-1.9c1.6,0,3,0.7,4.2,2v-7.3h3.9V967.5z M646.9,959.9     c0,1.6,0.2,2.7,0.6,3.4c0.6,1,1.5,1.5,2.6,1.5c0.9,0,1.6-0.4,2.3-1.1c0.6-0.8,0.9-1.9,0.9-3.4c0-1.7-0.3-2.9-0.9-3.6     c-0.6-0.7-1.4-1.1-2.3-1.1c-0.9,0-1.7,0.4-2.3,1.1C647.2,957.4,646.9,958.5,646.9,959.9z"/>
			<path class="st1" d="M667.6,967.5v-20.2h3.9v7.3c1.2-1.4,2.6-2,4.2-2c1.8,0,3.3,0.6,4.4,1.9c1.2,1.3,1.7,3.1,1.7,5.6     c0,2.5-0.6,4.4-1.8,5.8c-1.2,1.3-2.6,2-4.3,2c-0.8,0-1.7-0.2-2.5-0.6c-0.8-0.4-1.5-1-2.1-1.9v2.1H667.6z M671.4,959.9     c0,1.5,0.2,2.6,0.7,3.4c0.7,1,1.6,1.5,2.7,1.5c0.9,0,1.6-0.4,2.2-1.1c0.6-0.7,0.9-1.9,0.9-3.4c0-1.7-0.3-2.9-0.9-3.6     c-0.6-0.7-1.4-1.1-2.3-1.1c-0.9,0-1.7,0.4-2.3,1.1C671.7,957.3,671.4,958.4,671.4,959.9z"/>
			<path class="st1" d="M682.6,952.9h4.1l3.5,10.4l3.4-10.4h4l-5.2,14.1l-0.9,2.5c-0.3,0.9-0.7,1.5-1,2c-0.3,0.4-0.7,0.8-1.1,1.1     c-0.4,0.3-0.9,0.5-1.5,0.7c-0.6,0.2-1.2,0.2-2,0.2c-0.7,0-1.5-0.1-2.2-0.2l-0.3-3c0.6,0.1,1.2,0.2,1.6,0.2c0.9,0,1.6-0.3,2-0.8     c0.4-0.5,0.8-1.2,1-2L682.6,952.9z"/>
		</g>
	</g>
</g>
</svg>
